<?xml version="1.0" encoding="utf-8"?>
<!-- Generator: Adobe Illustrator 27.5.0, SVG Export Plug-In . SVG Version: 6.00 Build 0)  -->
<svg version="1.1" xmlns="http://www.w3.org/2000/svg" xmlns:xlink="http://www.w3.org/1999/xlink" x="0px" y="0px"
	 viewBox="0 0 500 500" style="enable-background:new 0 0 500 500;" xml:space="preserve">
<g id="BACKGROUND">
	<rect style="fill:#FFFFFF;" width="500" height="500"/>
</g>
<g id="OBJECTS">
	<path style="fill:#B2CBDB;" d="M127.258,39.223C49.929,35.29,16.503,98.118,16.61,167.203
		c-3.656,35.222-2.757,71.844,11.38,104.858c24.86,52.727,74.366,85.813,130.237,98.431c63.779,14.403,127.546,3.633,188.89-15.872
		c13.21-4.2,26.226-9.062,38.756-15.007c30.312-14.383,58.253-35.849,74.597-65.15c9.463-16.965,14.742-35.951,18.422-55.025
		c11.263-58.369,19.345-155.619-51.299-180.586c-0.619-0.217-1.24-0.429-1.863-0.635c-79.153-28.813-107.111,50.665-174.358,51.32
		C207.639,79.615,173.625,43.332,127.258,39.223z"/>
	<g>
		<g>
			<g>
				<g>
					<path style="fill:#B5852A;" d="M44.149,187.79c-0.293-1.758-0.603-3.559-1.494-5.103c-0.891-1.544-2.499-2.801-4.281-2.76
						c-2.096,0.048-3.807,1.885-4.403,3.895c-0.596,2.01-0.325,4.162-0.043,6.239c5.918,43.626,14.217,86.888,22.512,130.124
						c0.239,1.243,0.566,2.624,1.632,3.308c1.549,0.994,3.741-0.24,4.413-1.953c1.104-2.811-0.498-5.612-1.028-8.335
						c-0.858-4.41-1.01-9.085-1.526-13.551c-1.046-9.039-2.146-18.072-3.3-27.098c-2.309-18.052-4.836-36.075-7.581-54.066
						C47.486,208.246,45.853,198.012,44.149,187.79z"/>
					<path style="fill:#F2A10A;" d="M113.736,175.532c-0.195,1.754-1.133,4.884-1.217,5.173c-0.766,2.623-0.953,5.467-1.307,8.167
						c-0.878,6.712-1.55,13.452-2.017,20.205c-0.933,13.507-1.042,27.071-0.321,40.592c-0.016-0.295-10.848,1.59-11.821,1.657
						c-5.124,0.351-9.384,3.171-13.884,5.559c-11.062,5.869-21.838,12.279-32.274,19.201c-1.069,0.709-2.309,1.457-3.553,1.141
						c-1.701-0.433-2.299-2.498-2.597-4.227c-4.354-25.219-7.84-50.587-10.45-76.046c-0.097-0.95-0.184-1.957,0.234-2.815
						c0.631-1.296,2.171-1.819,3.556-2.218c20.774-5.982,41.632-11.982,63.04-14.99c4.153-0.584,8.37-1.065,12.293-2.551
						C113.762,174.248,113.822,174.755,113.736,175.532z"/>
				</g>
				<g>
					<polygon style="fill:#B5852A;" points="82.026,323.429 70.001,459.031 61.136,459.031 61.136,322.305 					"/>
					<polygon style="fill:#B5852A;" points="116.428,323.429 104.403,459.031 95.539,459.031 95.539,322.305 					"/>
					<polygon style="fill:#B5852A;" points="159.256,323.429 171.28,459.031 180.145,459.031 180.145,322.305 					"/>
					<path style="fill:#F2A10A;" d="M159.997,341.249c-29.849-1.422-59.969-1.348-89.898-2.868
						c-15.001,0.43-20.849-9.068-12.333-21.769c9.869-23.15,33.904-14.526,53.793-14.522c22.669,1.622,45.718,3.092,68.081,7.052
						c12.111,2.622,22.585,18.427,12.051,28.334C182.747,343.457,170.307,341.866,159.997,341.249z"/>
				</g>
			</g>
			<g>
				<g>
					<path style="fill:#F2594B;" d="M178.077,461.103c0.868-4.593,1.735-9.185,2.603-13.778c0.441-2.335,0.9-4.721,2.087-6.78
						c1.187-2.059,3.26-3.766,5.635-3.858c2.995-0.117,5.672,2.272,8.665,2.109c1.792-0.098,3.395-1.102,4.853-2.148
						c1.458-1.046,2.914-2.19,4.649-2.645c1.735-0.455,3.861-0.007,4.765,1.543c4.786,8.204,13.724,12.846,22.995,14.911
						c1.624,0.362,3.348,0.655,4.642,1.701c2.433,1.966,2.362,5.63,2.074,8.744C220.01,462.596,199.129,462.562,178.077,461.103z"/>
					<g>
						<path style="fill:none;stroke:#000000;stroke-linecap:round;stroke-linejoin:round;stroke-miterlimit:10;" d="
							M219.503,439.309c1.959-0.868,4.22-1.24,6.256-0.573c1.215,0.398,2.436,1.412,2.318,2.686
							c-0.071,0.765-0.635,1.424-1.324,1.764c-0.689,0.34-1.484,0.402-2.251,0.349c-2.244-0.153-4.318-1.211-6.506-1.732
							c-4.164-0.99-8.769,0.099-12.047,2.85c-0.78,0.654-1.545,1.683-1.109,2.603c0.259,0.547,0.891,0.843,1.496,0.861
							c0.605,0.018,1.192-0.193,1.751-0.427c2.189-0.917,4.675-2.288,6.136-4.21C215.657,441.592,217.289,440.29,219.503,439.309z"
							/>
						<path style="fill:none;stroke:#000000;stroke-linecap:round;stroke-linejoin:round;stroke-miterlimit:10;" d="
							M225.818,445.361c-1.575-0.245-3.196,0.111-4.659,0.743c-1.463,0.632-2.792,1.531-4.111,2.424
							c-0.176,0.119-0.362,0.251-0.438,0.449c-0.076,0.199,0.024,0.477,0.236,0.5"/>
						<path style="fill:none;stroke:#000000;stroke-linecap:round;stroke-linejoin:round;stroke-miterlimit:10;" d="
							M228.885,446.709c-3.329,0.201-6.582,1.493-9.142,3.631"/>
						<path style="fill:none;stroke:#000000;stroke-linecap:round;stroke-linejoin:round;stroke-miterlimit:10;" d="
							M231.676,447.927c-1.684,1.152-3.23,2.505-4.595,4.022"/>
					</g>
					<path style="fill:none;stroke:#000000;stroke-linecap:round;stroke-linejoin:round;stroke-miterlimit:10;" d="M240.799,457.023
						c-7.112,1-14.329,0.853-21.509,0.67c-13.34-0.341-26.676-0.803-40.007-1.385"/>
				</g>
				<path d="M188.014,274.046c9.415,3.762,18.851,7.975,26.484,14.648c5.36,4.685,8.106,11.844,2.931,18.096
					c-2.535,3.063-6.441,4.737-10.372,5.333c-3.931,0.595-7.937,0.217-11.891-0.195c-25.714-2.679-51.426-6.586-76.657-12.208
					c-7.521-2.008-15.523-4.926-19.66-11.52c-4.24-6.759-3.054-16.055,1.702-22.461c6.63-8.931,17.613-12.755,28.071-10.328
					c12.875,2.988,25.604,6.599,38.13,10.816C173.91,268.635,181.001,271.243,188.014,274.046z"/>
				<path d="M215.795,415.713c-0.217,1.856-0.435,3.712-0.652,5.568c-0.455,3.884-1.429,8.053-1.4,11.958
					c0.007,0.939,1.119,6.244,0.21,6.557c-10.662,3.673-22.047,5.235-33.305,4.571c0.779-27.277,1.337-54.568,2.319-81.831
					c0.268-7.434,1.994-15.966,0.915-23.305c-1.008-6.854-0.38-13.907,0.247-20.837c0.629-6.754,1.715-13.652,5.083-19.541
					c8.602-15.042,31.791-12.965,35.784,4.232c2.509,10.804,0.83,22.419-0.207,33.299c-1.921,20.142-4.417,40.226-6.769,60.325
					C217.278,403.045,216.537,409.379,215.795,415.713z"/>
				<path style="fill:none;stroke:#1A1A1A;stroke-linecap:round;stroke-linejoin:round;stroke-miterlimit:10;" d="M197.748,442.957
					c0.001-2.741,0.013-5.483,0.036-8.224c0.183-21.087,1.057-42.167,2.62-63.197c0.773-10.404,2.318-20.837,2.829-31.246
					c0.489-9.963-0.572-20.292-1.491-30.207c-0.303-3.267-0.68-6.628-2.258-9.504c-1.914-3.489-5.425-5.88-9.165-7.241
					c-3.739-1.361-7.74-1.803-11.696-2.236"/>
			</g>
			<polygon style="fill:#B5852A;" points="127.799,340.286 138.328,459.031 147.193,459.031 147.885,340.992 			"/>
		</g>
		<g>
			<g>
				<g>
					<path style="fill:#B5852A;" d="M451.628,189.79c0.293-1.758,0.603-3.559,1.494-5.103c0.891-1.544,2.499-2.801,4.281-2.76
						c2.096,0.048,3.807,1.885,4.403,3.895c0.596,2.01,0.325,4.162,0.043,6.239c-5.918,43.626-14.217,86.888-22.512,130.124
						c-0.238,1.243-0.566,2.624-1.631,3.308c-1.549,0.994-3.741-0.24-4.414-1.953c-1.104-2.811,0.498-5.612,1.028-8.335
						c0.858-4.41,1.009-9.085,1.526-13.551c1.046-9.039,2.146-18.072,3.3-27.098c2.309-18.052,4.836-36.075,7.581-54.066
						C448.291,210.246,449.924,200.012,451.628,189.79z"/>
					<path style="fill:#F2A10A;" d="M382.041,177.532c0.194,1.754,1.132,4.884,1.217,5.173c0.766,2.623,0.953,5.467,1.307,8.167
						c0.878,6.712,1.551,13.452,2.017,20.205c0.933,13.507,1.042,27.071,0.321,40.592c0.016-0.295,10.848,1.59,11.82,1.657
						c5.124,0.351,9.384,3.171,13.884,5.559c11.062,5.869,21.838,12.279,32.274,19.201c1.069,0.709,2.309,1.457,3.553,1.141
						c1.701-0.433,2.298-2.498,2.597-4.227c4.354-25.219,7.84-50.587,10.45-76.046c0.097-0.95,0.184-1.957-0.234-2.815
						c-0.631-1.296-2.171-1.819-3.556-2.218c-20.774-5.982-41.632-11.982-63.039-14.99c-4.154-0.584-8.37-1.065-12.293-2.551
						C382.015,176.248,381.955,176.755,382.041,177.532z"/>
				</g>
				<g>
					<polygon style="fill:#B5852A;" points="413.751,323.429 425.776,459.031 434.641,459.031 434.641,322.305 					"/>
					<polygon style="fill:#B5852A;" points="379.349,325.429 391.374,461.031 400.238,461.031 400.238,324.305 					"/>
					<polygon style="fill:#B5852A;" points="336.521,325.429 324.497,461.031 315.632,461.031 315.632,324.305 					"/>
					<path style="fill:#F2A10A;" d="M335.199,338.858c3.627,4.216,9.992,4.353,15.549,4.158c24.977-0.878,49.954-1.756,74.93-2.634
						c5.787-0.204,12.646-1.043,15.339-6.17c2.577-4.906-0.238-10.799-3.006-15.6c-3.105-5.387-6.527-11.077-12.121-13.79
						c-4.28-2.076-9.233-2.096-13.99-2.007c-9.237,0.173-18.469,0.598-27.682,1.275c-9.914,0.728-19.916,1.771-29.305,5.036
						c-5.97,2.076-12.6,4.928-16.755,10.081C334.399,323.87,330.781,333.723,335.199,338.858z"/>
				</g>
			</g>
			<g>
				<path style="fill:#A1633A;" d="M290.416,440.264c0.161,0.842,0.405,1.793,1.248,2.217c0.528,0.266,1.172,0.253,1.778,0.234
					c4.327-0.141,8.654-0.282,12.982-0.422c2.318-11.583,2.95-23.433,1.877-35.172c0.097,1.062-11.942,0.422-13.042,0.257
					c-2.556-0.384-9.781-3.797-11.826-1.775c-1.554,1.537,1.318,5.31,1.707,7.047c0.954,4.261,1.639,8.583,2.458,12.865
					C288.538,430.432,289.477,435.348,290.416,440.264z"/>
				<path d="M307.763,276.046c-9.415,3.762-18.851,7.975-26.484,14.648c-5.36,4.685-8.106,11.844-2.931,18.096
					c2.535,3.063,6.441,4.737,10.372,5.333c3.931,0.595,7.937,0.217,11.891-0.195c25.714-2.679,51.426-6.586,76.657-12.208
					c7.521-2.008,15.523-4.926,19.66-11.52c4.24-6.759,3.054-16.055-1.702-22.461c-6.63-8.931-17.613-12.755-28.071-10.328
					c-12.874,2.988-25.604,6.599-38.13,10.816C321.867,270.635,314.776,273.243,307.763,276.046z"/>
				<path d="M284.921,417.208c1.146,0.521,2.434,0.808,3.681,1.031c5.232,0.936,10.581,1.21,15.882,0.816
					c2.226-0.166,6.358,0.223,7.642-1.938c0.74-1.245,0.806-2.764,0.849-4.212c0.471-16.119,0.415-32.253-0.165-48.368
					c-0.268-7.434-1.994-15.966-0.914-23.305c1.008-6.854,0.38-13.907-0.247-20.837c-0.628-6.754-1.715-13.652-5.083-19.541
					c-8.602-15.042-31.791-12.965-35.784,4.232c-2.509,10.804-0.83,22.419,0.207,33.299c2.295,24.066,5.103,48.068,9.64,71.847
					c0.374,1.959,0.811,4.025,2.166,5.489C283.394,416.369,284.123,416.846,284.921,417.208z"/>
				<path style="fill:none;stroke:#1A1A1A;stroke-linecap:round;stroke-linejoin:round;stroke-miterlimit:10;" d="M300.072,418.389
					c-7.281-34.872-9.323-70.834-6.038-106.306c0.302-3.267,0.68-6.628,2.258-9.504c1.914-3.489,5.426-5.88,9.165-7.241
					c3.74-1.361,7.74-1.803,11.696-2.236"/>
				<g>
					<path style="fill:#69952F;" d="M317.701,463.103c-0.867-4.593-1.735-9.185-2.603-13.778c-0.441-2.335-0.901-4.721-2.087-6.78
						c-1.187-2.059-3.26-3.766-5.634-3.858c-2.995-0.117-5.672,2.272-8.665,2.109c-1.792-0.098-3.395-1.102-4.853-2.148
						c-1.458-1.046-2.914-2.19-4.649-2.645c-1.736-0.455-3.861-0.007-4.765,1.543c-4.786,8.204-13.724,12.846-22.995,14.911
						c-1.624,0.362-3.348,0.655-4.642,1.701c-2.433,1.966-2.362,5.63-2.074,8.744C275.767,464.596,296.648,464.562,317.701,463.103z
						"/>
					<g>
						<path style="fill:none;stroke:#000000;stroke-linecap:round;stroke-linejoin:round;stroke-miterlimit:10;" d="
							M279.921,439.748c-1.958-0.868-4.22-1.24-6.256-0.573c-1.215,0.398-2.436,1.412-2.318,2.686
							c0.071,0.765,0.635,1.424,1.324,1.764c0.689,0.34,1.484,0.402,2.251,0.349c2.244-0.153,4.318-1.211,6.507-1.731
							c4.163-0.991,8.769,0.099,12.047,2.85c0.78,0.654,1.545,1.683,1.109,2.603c-0.259,0.547-0.891,0.843-1.496,0.861
							c-0.605,0.018-1.192-0.193-1.751-0.427c-2.189-0.917-4.675-2.288-6.136-4.21C283.767,442.031,282.135,440.729,279.921,439.748
							z"/>
						<path style="fill:none;stroke:#000000;stroke-linecap:round;stroke-linejoin:round;stroke-miterlimit:10;" d="M273.606,445.8
							c1.575-0.245,3.196,0.111,4.659,0.743c1.463,0.632,2.792,1.531,4.112,2.424c0.176,0.119,0.362,0.251,0.438,0.449
							c0.076,0.199-0.024,0.477-0.236,0.499"/>
						<path style="fill:none;stroke:#000000;stroke-linecap:round;stroke-linejoin:round;stroke-miterlimit:10;" d="
							M270.539,447.147c3.329,0.201,6.583,1.493,9.142,3.631"/>
						<path style="fill:none;stroke:#000000;stroke-linecap:round;stroke-linejoin:round;stroke-miterlimit:10;" d="
							M267.749,448.366c1.684,1.152,3.23,2.505,4.595,4.022"/>
					</g>
					<path style="fill:none;stroke:#000000;stroke-linecap:round;stroke-linejoin:round;stroke-miterlimit:10;" d="M254.978,459.023
						c7.112,1,14.329,0.853,21.509,0.67c13.34-0.341,26.676-0.803,40.008-1.385"/>
				</g>
			</g>
			<g>
				<path style="fill:#A1633A;" d="M330.039,435.973c0.234,1.053,0.521,2.194,1.376,2.852c1.007,0.775,2.424,0.606,3.678,0.398
					c3.018-0.499,6.036-0.998,9.054-1.497c1.151-0.19,2.444-0.471,3.056-1.465c0.432-0.701,0.404-1.581,0.356-2.403
					c-0.669-11.521-2.511-22.973-5.488-34.122c0.116,0.434-7.324,3.666-8.057,3.993c-2.836,1.267-5.885,2.139-8.684,3.452
					c-1.62,0.76-1.409,1.175-1.037,2.902c0.359,1.666,0.739,3.328,1.108,4.992c0.725,3.267,1.45,6.534,2.175,9.801
					C328.397,428.576,329.218,432.274,330.039,435.973z"/>
				<path style="fill:#1A1A1A;" d="M412.857,321.334c-3.346,0.903-6.876,1.298-10.336,1.671c-4.338,0.468-8.887,1.441-13.204,1.55
					c-7.117,0.18-14.237,0.185-21.355,0.235c-13.662,0.096-27.026,0.626-40.688,1.6c-7.391,0.527-15.046,1.02-21.998-1.545
					c-5.373-1.982-13.653-8.46-12.539-15.185c1.016-6.133,8.49-11.28,13.435-14.031c9.872-5.493,20.782-8.809,31.629-11.965
					c14.862-4.325,29.82-8.432,45.076-11.054c9.512-1.635,19.306-2.889,28.952-1.776c5.029,0.581,10.099,1.471,15.164,2.076
					c1.268,0.151,2.613,0.334,3.599,1.146c1.475,1.215,1.646,3.372,1.702,5.283c0.214,7.32,0.417,14.745-1.32,21.859
					c-1.737,7.114-5.686,14.003-12.022,17.674C417.038,319.981,414.984,320.76,412.857,321.334z"/>
				<g>
					<path style="fill:#1A1A1A;" d="M293.259,314.259c-0.416,5.435,0.849,10.844,2.168,16.133
						c5.93,23.78,13.48,46.944,20.946,70.213c1.518,4.732,3.036,9.463,4.555,14.195c0.505,1.575,1.131,3.3,2.588,4.084
						c1.445,0.778,3.215,0.363,4.794-0.085c2.686-0.762,5.512-1.42,8.088-2.5c1.982-0.831,4.129-0.92,6.125-1.767
						c1.769-0.75,3.367-2.144,3.88-3.996c0.338-1.22,0.182-2.515,0.024-3.771c-2.859-22.731-5.232-45.418-7.436-68.222
						c-0.68-7.039-1.376-14.15-3.638-20.85c-2.262-6.7-6.267-13.051-12.268-16.792c-5.857-3.651-13.957-3.992-20.479-1.839
						C296.597,301.048,293.704,308.448,293.259,314.259z"/>
					<path style="fill:none;stroke:#000000;stroke-linecap:round;stroke-linejoin:round;stroke-miterlimit:10;" d="M336.397,413.989
						c-10.898-27.143-19.107-55.365-24.466-84.119c-1.102-5.911-1.96-12.497,1.333-17.527c2.976-4.546,8.576-6.56,13.893-7.681
						c19.143-4.036,38.95-0.288,58.51,0.117c4.756,0.099,9.772-0.071,13.846-2.529c3.905-2.355,6.412-6.558,7.663-10.943
						c1.251-4.385,1.387-9,1.514-13.558"/>
					<path d="M329.108,316.099c-0.84-0.996-1.737-2.219-1.403-3.479c0.338-1.277,1.895-1.924,3.188-1.655
						c1.293,0.27,2.337,1.214,3.194,2.219c1.578,1.851,2.738,4.048,3.415,6.382c0.273,0.941,1.575,6.034,0.516,6.696
						C337.254,326.74,329.971,317.122,329.108,316.099z"/>
				</g>
				<g>
					<path style="fill:#8CC63F;" d="M321.527,448.388c-1.462,1.05-3.256,1.565-4.93,2.259c-4.004,1.659-7.691,4.759-8.779,8.954
						c-0.341,1.314-0.31,2.942,0.78,3.751c0.689,0.512,1.611,0.545,2.469,0.559c6.234,0.095,12.469,0.191,18.703,0.286
						c2.463,0.038,5.011,0.06,7.277-0.907c2.068-0.883,3.712-2.51,5.302-4.1c0.026-0.533,2.009-2.009,2.421-2.421
						c0.874-0.874,1.748-1.748,2.622-2.622c1.748-1.748,3.496-3.496,5.245-5.245c1.748-1.748,3.496-3.496,5.245-5.245
						c1.437-1.437,3.513-3.282,3.261-5.556c-0.113-1.013-0.757-1.876-1.379-2.683c-3.762-4.888-7.525-9.776-11.287-14.664
						c-0.515-0.67-1.117-1.391-1.954-1.508c-1.389-0.194-2.33,1.296-3.14,2.44c-1.909,2.696-5.115,4.427-8.416,4.545
						c-1.859,0.066-3.824-0.331-5.513,0.449c-2.309,1.067-3.289,3.896-2.971,6.28c0.373,2.797-0.68,6.168-1.306,8.995
						c-0.509,2.298-1.436,4.62-3.247,6.122C321.798,448.186,321.664,448.29,321.527,448.388z"/>
					<path style="fill:none;stroke:#000000;stroke-linecap:round;stroke-linejoin:round;stroke-miterlimit:10;" d="M320.486,432.875
						c-1.196,0.817-1.836,2.498-1.203,3.8c0.771,1.587,2.984,1.941,4.635,1.32c1.651-0.621,2.929-1.929,4.321-3.012
						c1.606-1.25,3.512-2.257,5.547-2.275c2.035-0.018,4.173,1.179,4.744,3.132c0.3,1.026,0.012,2.346-0.974,2.76
						c-1.602,0.674-3.937-1.302-5.237-2.057c-1.127-0.655-2.203-1.378-3.307-2.068C326.651,433.001,323.151,431.054,320.486,432.875
						z"/>
					<g>
						<path style="fill:none;stroke:#000000;stroke-linecap:round;stroke-linejoin:round;stroke-miterlimit:10;" d="
							M318.008,450.259c0.631-0.794,1.822-0.811,2.825-0.657c2.257,0.346,4.435,1.2,6.325,2.482"/>
						<path style="fill:none;stroke:#000000;stroke-linecap:round;stroke-linejoin:round;stroke-miterlimit:10;" d="M322.142,446
							c2.618-0.124,5.272,0.729,7.328,2.356"/>
						<path style="fill:none;stroke:#000000;stroke-linecap:round;stroke-linejoin:round;stroke-miterlimit:10;" d="
							M325.075,441.779c2.463,0.058,4.911,0.681,7.103,1.807"/>
					</g>
					<path style="fill:none;stroke:#000000;stroke-linecap:round;stroke-linejoin:round;stroke-miterlimit:10;" d="M307.681,459.805
						c6.977,1.607,14.243,0.368,21.375-0.258c1.978-0.174,4.007-0.311,5.821-1.117c1.523-0.677,2.805-1.788,4.058-2.887
						c7.091-6.225,14.032-12.62,20.817-19.177"/>
				</g>
			</g>
			<polygon style="fill:#B5852A;" points="367.978,342.286 357.449,461.031 348.584,461.031 347.892,342.992 			"/>
		</g>
		<g>
			<g>
				<g>
					<path style="fill:#A1633A;" d="M148.668,175.738c0.589,0.892,1.16,1.787,1.714,2.678c2.229,3.587,4.232,7.31,6.122,11.085
						c0.973,1.942,1.914,3.9,2.841,5.865c0.368,0.781,2.77,4.603,2.468,5.3c3.279-7.568,6.022-15.329,9.328-22.939
						c1.645-3.787,3.316-7.564,5.013-11.329c1.479-3.282,2.417-6.614,3.737-9.968c4.382,1.861,9.208,2.67,13.958,2.34
						c-0.137,2.338-0.301,4.675-0.489,7.009c-0.991,12.288-2.684,24.518-5.065,36.613c-1.19,6.048-2.553,12.061-4.086,18.031
						c-1.291,5.028-2.34,10.341-6.472,13.882c-2.723,2.333-6.486,3.225-10.061,2.938c-3.575-0.287-6.986-1.66-10.113-3.417
						c-11.89-6.678-19.814-18.56-26.772-30.288c-3.495-5.89-6.885-11.903-9.052-18.4c-2.167-6.497-3.061-13.565-1.478-20.229
						c0.596-2.508,1.976-7.73,4.77-8.711c2.628-0.923,6.681,1.979,8.72,3.363C139.753,163.631,144.637,169.632,148.668,175.738z"/>
					<path style="fill:#753C17;" d="M160.401,210.367c-0.221,1.427-0.451,2.883-1.117,4.165c-0.324,0.624-0.928,1.268-1.611,1.1
						c-0.638-0.157-0.896-0.912-1.008-1.559c-0.884-5.132,1.024-11.103,5.12-14.445c0.753,1.011-0.263,3.494-0.438,4.625
						C161.031,206.291,160.716,208.329,160.401,210.367z"/>
					<path style="fill:#753C17;" d="M168.678,223.98c-1.581,1.461-2.482,3.63-2.4,5.781c0.777-0.062,1.384-0.72,1.713-1.427
						c0.329-0.706,0.463-1.49,0.775-2.204c0.578-1.323,1.816-2.306,3.199-2.678c0.54-0.146,3.544,0.185,3.587-0.145
						c0.088-0.688-2.061-1.186-2.489-1.211C171.506,222.005,169.787,222.956,168.678,223.98z"/>
				</g>
				<g>
					<path style="fill:#F2594B;" d="M150.432,175.802c1.141,1.432,2.275,2.87,3.406,4.31c1.249,1.589,2.52,3.231,3.1,5.167
						c0.699,2.336,0.313,4.866-0.405,7.196c-3.245,10.528-8.735,20.121-17.378,27.138c-13.649-12.268-20.817-31.375-18.606-49.593
						c0.705-5.813,1.756-11.542,2.909-17.294c4.604,1.255,8.78,3.798,12.423,6.88c3.643,3.082,6.79,6.701,9.833,10.376
						C147.307,171.905,148.876,173.848,150.432,175.802z"/>
					<path style="fill:#B54338;" d="M142.375,194.423c-1.05,8.502-3.582,16.789-4.282,25.327c-1.112-1.391-2.664-2.346-4.018-3.503
						c-1.354-1.157-2.583-2.682-2.647-4.462c-0.038-1.069,0.35-2.102,0.714-3.108c3.931-10.878,5.589-22.567,4.88-34.11
						c-0.11-1.791-1.301-5.647-0.503-7.184c1.062,0.569,1.686,2.336,2.209,3.373c1.031,2.043,1.989,4.144,2.649,6.339
						C143.059,182.681,143.085,188.674,142.375,194.423z"/>
				</g>
				<g>
					<g>
						<path style="fill:#753C17;" d="M206.188,141.716c1.052,0.377,1.853,1.378,1.989,2.488c0.136,1.109-0.398,2.275-1.328,2.895
							c1.119,0.231,1.777,1.51,1.666,2.647c-0.111,1.137-0.8,2.132-1.549,2.994c-1.45,1.669-3.196,3.05-4.932,4.419
							c-0.834,0.658-1.69,1.328-2.697,1.665c-1.324,0.443-2.571,0.044-3.44-1.031c-0.519,1.087-1.454,1.97-2.568,2.426
							c-1.115,0.457-2.4,0.483-3.533,0.072c-0.206-0.075-0.42-0.173-0.54-0.357c-0.124-0.189-0.124-0.431-0.117-0.657
							c0.078-2.683,0.704-5.163,1.246-7.759c0.491-2.351,1.287-4.648,2.723-6.599c1.744-2.37,3.787-4.519,6.069-6.377
							c1.518-1.236,4.714-4.261,6.361-1.671C206.412,138.247,206.584,140.164,206.188,141.716z"/>
						<path style="fill:#51321D;" d="M193.315,153.472c0.162,1.088,1.014,2.106,2.107,2.231c-0.245,0.325-0.257,0.807-0.029,1.144
							c-0.237,0.117-0.549,0.053-0.723-0.146c-0.173-0.2-0.191-0.518-0.042-0.736c-0.707,0.129-1.447-0.264-1.841-0.865
							c-0.394-0.601-0.474-1.369-0.34-2.075c0.134-0.706,0.466-1.359,0.845-1.969c-0.791-0.359-1.398-1.099-1.596-1.945
							c-0.172-0.737-0.031-1.54,0.372-2.179c0.111-0.176,0.394-0.676,0.637-0.503c0.302,0.215,0.114,2.06,0.218,2.453
							c0.195,0.743,0.652,1.105,1.277,1.512C193.66,151.37,193.141,152.301,193.315,153.472z"/>
						<g>
							<path style="fill:#51321D;" d="M200.156,152.513c2.719-1.386,4.94-3.587,6.863-5.956c-4.388,2.479-8.483,5.477-12.173,8.91
								c0.868-0.278,1.57-1.137,2.405-1.582C198.197,153.382,199.202,152.999,200.156,152.513z"/>
							<path style="fill:#51321D;" d="M194.346,150.36c1.282-0.48,2.381-1.34,3.457-2.187c0.012-0.171,0.902-0.71,1.051-0.827
								c0.366-0.288,0.731-0.575,1.097-0.863c0.746-0.587,1.493-1.175,2.239-1.762c0.731-0.575,1.462-1.15,2.193-1.726
								c0.642-0.505,1.469-0.989,2.001-1.601c-0.673,0.029-1.442,0.642-2.004,0.976c-0.896,0.532-1.775,1.094-2.634,1.684
								c-1.704,1.171-3.331,2.454-4.866,3.839C196.005,148.684,195.159,149.507,194.346,150.36z"/>
						</g>
					</g>
					<path style="fill:#753C17;" d="M182.744,138.698c1.315-3.024,2.81-6.254,5.685-7.87c2.496-1.403,5.523-1.296,8.386-1.333
						c4.307-0.056,8.608-0.528,12.825-1.407c0.918-0.191,1.872-0.402,2.782-0.176c0.91,0.226,1.751,1.043,1.656,1.976
						c-0.087,0.846-0.864,1.439-1.616,1.837c-3.583,1.898-7.944,1.807-11.585,3.592c-3.221,1.58-5.585,4.486-7.539,7.495
						c-0.975,1.502-1.88,3.058-3.029,4.43c-1.15,1.372-2.581,2.571-4.286,3.117c-1.705,0.546-3.71,0.352-5.086-0.794
						c-1.213-1.011-1.484-2.569-1.067-4.046c0.288-1.023,0.835-1.95,1.342-2.883C181.904,141.358,182.174,140.008,182.744,138.698z"
						/>
					<g>
						<polygon style="fill:#69952F;" points="234.815,130.392 174.102,144.899 173.186,140.68 234.446,128.691 						"/>
						<polygon style="fill:#8CC63F;" points="236.212,137.985 173.936,142.259 173.729,137.947 236.129,136.246 						"/>
					</g>
					<path style="fill:#A1633A;" d="M202.986,132.574c0.733-0.342,1.51-0.637,2.319-0.647s1.659,0.312,2.109,0.984
						c0.639,0.957,0.291,2.261-0.271,3.265c-1.537,2.748-4.299,4.451-6.524,6.576c-1.161,1.109-1.971,2.44-2.997,3.673
						c-1.196,1.437-2.351,2.913-3.344,4.499c-1.419,2.268-2.508,4.788-2.806,7.447c-0.064,0.574-0.112,1.201-0.503,1.626
						c-0.436,0.473-1.147,0.537-1.789,0.57c-2.839,0.145-5.901,0.233-8.267-1.343c-0.853-0.568-1.608-1.33-1.804-2.368
						c-0.116-0.612-0.079-1.242-0.041-1.864c0.235-3.894,0.479-7.838,1.694-11.544c0.522,0.526,1.05,0.829,1.811,0.897
						c0.678,0.06,1.36-0.072,2.015-0.259c1.71-0.49,3.283-1.358,4.839-2.218c0-0.103,0.982-0.543,1.107-0.612
						c0.415-0.229,0.83-0.459,1.245-0.688c0.662-0.366,1.262-0.904,1.871-1.363c1.416-1.067,2.762-2.224,4.164-3.308
						C199.435,134.641,201.122,133.445,202.986,132.574z"/>
				</g>
			</g>
			<g>
				<g>
					<path style="fill:#F2594B;" d="M57.967,219.108c0.53-13.073,1.944-26.118,4.165-39.006c0.619-3.59,1.074-7.628,2.548-10.989
						c1.026-2.338,2.81-4.699,4.18-6.856c3.486-5.489,9.29-9.325,15.42-11.265c8.043-2.545,16.691-2.247,25.092-1.475
						c6.035,0.554,12.856,1.292,17.871,4.903c4.856,3.497,8.646,8.286,10.585,13.98c2.387,7.012,1.88,14.656,0.919,22
						c-1.231,9.413-3.16,18.759-3.544,28.245c-0.26,6.423,0.193,12.876,1.35,19.2c1.073,5.867,1.326,11.733,2.638,17.652
						c0.731,3.3,2.003,6.645,2.509,9.972c0.517,3.396-1.124,3.416-4.18,4.653c-6.014,2.434-11.954,4.893-18.153,6.841
						c-12.366,3.886-25.165,6.392-38.084,7.457c-1.116,0.092-17.861,1.688-17.969,1.166
						C58.723,263.767,57.062,241.396,57.967,219.108z"/>
				</g>
				<path style="fill:#B54338;" d="M85.996,173.876c-4.118-0.782-7.892,5.585-9.839,8.199c-3.301,4.43-6.226,9.14-8.734,14.063
					c-1.925,3.779-3.671,7.658-5.502,11.483c-0.207,0.433-0.402,0.917-0.351,1.377c-0.171,0.129-0.349,0.252-0.558,0.345
					c0.223,0.021,0.447,0.024,0.67,0.042c0.224,0.436,0.702,0.691,1.158,0.892c3.262,1.441,6.784,2.447,10.348,2.338
					c3.564-0.109,7.184-1.428,9.591-4.059c0.734-0.802,1.328-1.694,1.824-2.642c0.235-0.094,0.469-0.188,0.702-0.285
					c2.23-5.931,3.414-12.251,3.502-18.586C88.846,184.289,90.003,174.636,85.996,173.876z"/>
			</g>
			<g>
				<g>
					<g>
						<path style="fill:#A1633A;" d="M117.922,151.574c-0.492,2.427-0.952,4.863-1.455,7.274c-0.69,3.309-1.623,6.98-4.493,8.765
							c-2.417,1.503-5.636,1.174-8.152-0.155c-2.517-1.328-4.463-3.51-6.258-5.718c-2.01-2.472-3.906-5.036-5.68-7.683
							c-0.565-0.843-1.13-1.724-1.318-2.721c-0.267-1.418,0.26-2.853,0.779-4.2c2.478-6.437,4.955-12.874,7.433-19.312
							c1.064-2.764,1.831-6.318,3.486-8.777c1.709-2.539,2.776-1.182,4.504,0.38c2.949,2.667,7.264,3.942,10.884,5.068
							c0.408,0.127,0.818,0.249,1.229,0.366c0.617,0.176,1.261,0.355,1.743,0.815c0.625,0.597,0.866,1.582,0.821,2.511
							c-0.243,5.051-0.36,10.626-1.696,15.496C119.036,146.274,118.46,148.919,117.922,151.574z"/>
						<path style="fill:#753C17;" d="M117.388,154.767c-0.572,2.635-1.316,5.804-1.543,5.771c-2.389-0.344-4.613-1.505-6.465-3.053
							c-1.852-1.548-3.357-3.473-4.679-5.493c-2.073-3.167-3.724-6.608-4.91-10.202c-1.09-3.303-2.372-7.428-1.948-10.932
							c0.115-0.95,0.259-2.033,0.728-2.867c0.491-0.874,1.146-0.616,1.964-0.377c2.414,0.707,4.717,1.817,6.892,3.163
							c4.752,2.94,7.569,7.339,10.349,12.081c1.497,2.554,0.795,5.665,0.316,8.501C118.038,151.669,117.747,153.113,117.388,154.767
							z"/>
					</g>
				</g>
				<g>
					<path style="fill:#F57A6F;" d="M89.179,160.058c1.359,5.366,4.521,10.076,7.741,14.579c1.164,1.627,2.517,3.362,4.473,3.781
						c2.239,0.48,4.492-0.996,5.813-2.865c1.322-1.869,1.985-4.113,2.994-6.168c2.036,1.745,4.543,2.936,7.182,3.412
						c1.105,0.199,2.335,0.249,3.254-0.395c0.757-0.53,1.154-1.43,1.459-2.302c2.432-6.959,0.967-15.142-3.729-20.824
						c-1.452,4.786-2.906,9.575-4.667,14.256c-0.65,1.728-1.493,3.602-3.186,4.339c-1.06,0.461-2.298,0.378-3.384-0.015
						c-1.087-0.393-2.046-1.072-2.948-1.794c-5.24-4.192-8.996-10.167-10.622-16.669c-0.445-1.78-0.463-3.661-0.89-5.413
						c-0.731,0.473-1.51,2-1.977,2.777c-0.776,1.292-1.324,2.712-1.671,4.176C88.315,153.918,88.428,157.092,89.179,160.058z"/>
					<path style="fill:#F57A6F;" d="M116.776,187.909c-1.697,0.259-3.394,0.519-5.091,0.778c0.078-3.281-0.138-6.569-0.639-9.813
						c-0.258-1.671-0.592-3.331-1.001-4.971c-0.329-1.322-1.371-3.226-1.345-4.557c0.037-1.887,2.09-0.724,3.092,0.128
						c1.988,1.692,2.399,5.178,3.014,7.581C115.034,177.943,117.138,187.854,116.776,187.909z"/>
				</g>
			</g>
			<g>
				<path style="fill:#A1633A;" d="M141.895,120.373c-0.43,4.92-1.272,9.801-2.567,14.57c-0.71,2.612-1.555,5.188-2.539,7.71
					c-1.052,2.696-2.456,5.537-5.067,6.784c-2.305,1.101-5.013,0.698-7.53,0.264c-5.665-0.979-11.405-2.026-16.578-4.532
					c-3.014-1.461-5.815-3.461-8.011-6.004c-2.418-2.799-3.044-5.55-4.042-8.949c-1.686-5.742-2.68-11.686-2.974-17.663
					c-0.16-3.248-0.113-6.507,0.143-9.75c0.234-2.977,0.364-6.176,1.673-8.874c2.308-4.757,5.752-9.247,10.645-11.531
					c3.565-1.664,7.61-2.026,11.541-1.851c4.965,0.221,9.992,1.304,14.215,3.924c3.759,2.332,6.163,5.607,8.72,9.107
					c2.425,3.319,2.252,8.542,2.513,12.578C142.342,110.888,142.308,115.648,141.895,120.373z"/>
				<g>
					<path style="fill:#753C17;" d="M133.334,124.324c0.289,0.642,0.581,1.294,0.679,1.991c0.098,0.697-0.024,1.457-0.485,1.989
						c-0.597,0.69-1.654,0.846-2.52,0.558c-0.866-0.288-1.562-0.946-2.12-1.668c-2.323-3.007-2.587-7.313-2.174-10.956
						c0.064-0.566,0.159-1.151,0.482-1.62c0.323-0.469,0.937-0.784,1.473-0.593c0.652,0.233,0.868,1.026,1.029,1.7
						C130.422,118.769,132.058,121.493,133.334,124.324z"/>
					<g>
						<path d="M122.604,118.467c-0.034,0.656-0.219,1.341-0.805,1.847s-1.66,0.764-2.46,0.441c-0.671-0.271-0.967-0.85-1.101-1.393
							c-0.276-1.116-0.085-2.29,0.541-3.331c0.437-0.727,1.759-1.64,2.777-0.822C122.515,115.98,122.653,117.499,122.604,118.467z"
							/>
						<path style="fill:none;stroke:#000000;stroke-linecap:round;stroke-linejoin:round;stroke-miterlimit:10;" d="
							M123.107,112.106c-0.767-2.412-3.194-4.194-5.725-4.204c-2.531-0.009-4.971,1.754-5.757,4.16"/>
					</g>
					<g>
						<path d="M139.184,116.4c-0.034,0.656-0.22,1.341-0.805,1.846c-0.586,0.506-1.66,0.764-2.46,0.441
							c-0.671-0.271-0.967-0.85-1.101-1.393c-0.276-1.116-0.085-2.289,0.541-3.331c0.437-0.727,1.759-1.64,2.777-0.822
							C139.095,113.913,139.234,115.432,139.184,116.4z"/>
						<path style="fill:none;stroke:#000000;stroke-linecap:round;stroke-linejoin:round;stroke-miterlimit:10;" d="M131.787,108.38
							c1.189-1.354,3.268-1.715,4.968-1.118c1.7,0.597,3.022,2.019,3.806,3.641"/>
					</g>
					<g>
						<path style="fill:none;stroke:#000000;stroke-linecap:round;stroke-linejoin:round;stroke-miterlimit:10;" d="M131.461,137.22
							c-5.056,1.308-10.748-0.21-14.482-3.861"/>
						<path style="fill:none;stroke:#000000;stroke-linecap:round;stroke-linejoin:round;stroke-miterlimit:10;" d="
							M112.322,135.211c0.611,0.361,1.387,0.376,2.057,0.14c0.669-0.235,1.24-0.698,1.704-1.235
							c1.493-1.727,1.905-4.316,1.024-6.421"/>
						<path style="fill:none;stroke:#000000;stroke-linecap:round;stroke-linejoin:round;stroke-miterlimit:10;" d="
							M132.401,134.322c-0.4,0.976-0.655,2.049-0.458,3.085c0.197,1.036,0.927,2.017,1.951,2.272"/>
					</g>
				</g>
				<path d="M106.253,104.414c-0.013-0.101-0.027-0.202-0.042-0.303c-0.324-2.227-0.983-4.559-0.19-6.665
					c1.102-2.927,4.706-4.229,7.805-3.807c3.098,0.423,5.842,2.136,8.574,3.657c4.871,2.711,10.241,4.968,15.812,4.754
					c5.528-0.212,15.572-5.257,12.643-12.32c-0.975-2.351-4.163-3.687-6.279-2.272c1.831-1.389,3.158-3.507,3.338-5.798
					c0.18-2.291-0.895-4.701-2.864-5.886c-2.31-1.39-5.263-0.933-7.848-0.171c-2.586,0.762-5.22,1.799-7.89,1.428
					c-2.756-0.383-5.062-2.198-7.575-3.392c-6.523-3.102-14.417-1.888-20.894,1.31c-3.9,1.926-7.507,4.228-9.726,8.102
					c-0.362-1.427-0.13-2.956-0.504-4.38c-0.375-1.424-1.793-2.802-3.175-2.294c-1.019,0.374-1.468,1.565-1.616,2.641
					c-0.346,2.51,0.305,5.144,1.78,7.204c-3.343,0.161-6.499,2.388-7.771,5.483c-0.511,1.244-0.703,2.761,0.065,3.865
					c1.072,1.543,3.328,1.496,5.195,1.285c-2.564,3.001-3.23,7.805-3.189,11.655c0.045,4.295,1.201,8.592,3.442,12.267
					c1.518,2.489,3.735,4.835,6.615,5.284c3.092,0.482,6.098-1.357,8.284-3.597C104.827,117.767,107.101,110.919,106.253,104.414z"
					/>
				<g>
					<path style="fill:#A1633A;" d="M97.349,130.997c2.709-2.31,3.792-6.922,3.114-10.304c-0.748-3.732-4.079-8.141-8.388-7.239
						c-1.506,0.315-2.847,1.352-3.776,2.705c-0.929,1.353-1.466,3.004-1.707,4.684c-0.316,2.211-0.125,4.539,0.726,6.569
						s2.389,3.734,4.289,4.482C93.506,132.643,95.75,132.36,97.349,130.997z"/>
					<g>
						<path style="fill:none;stroke:#000000;stroke-linecap:round;stroke-linejoin:round;stroke-miterlimit:10;" d="M94.958,117.563
							c2.002,2.969,2.02,7.146,0.043,10.132"/>
						<path style="fill:none;stroke:#000000;stroke-linecap:round;stroke-linejoin:round;stroke-miterlimit:10;" d="M96.503,122.765
							c-0.33,0.316-0.826,0.367-1.283,0.379c-1.429,0.038-2.863-0.146-4.237-0.544"/>
					</g>
				</g>
			</g>
			<g>
				<g>
					<path style="fill:#A1633A;" d="M34.718,221.949c-2.343,6.072-4.593,12.937-1.983,18.9c1.943,4.439,6.382,7.472,11.111,8.531
						c9.263,2.075,19.191-2.444,26.802-7.306c8.66-5.533,17.721-10.457,26.387-16.003c4.246-2.717,8.46-5.484,12.64-8.301
						c0.686-0.462,1.423-0.998,1.615-1.803c0.163-0.685-0.114-1.389-0.386-2.038c-1.31-3.125-3.451-6.497-3.451-9.917
						c-14.625,4.478-28.94,9.968-42.808,16.42c9.118-9.206,16.192-20.427,20.567-32.624c1.729-4.819,2.802-9.941,1.825-15.058
						c-0.632-3.311-2.219-6.509-4.801-8.674c-2.583-2.165-6.217-3.174-9.45-2.22c-3.033,0.896-5.347,3.308-7.42,5.696
						c-8.525,9.822-16.282,21.11-21.709,32.953C40.429,207.546,37.506,214.723,34.718,221.949z"/>
					<path style="fill:#753C17;" d="M56.006,230.27c-0.349,0.597-0.627,1.395-0.196,1.935c0.319,0.4,0.924,0.47,1.405,0.297
						c0.481-0.174,0.864-0.54,1.22-0.907c1.651-1.701,3.06-3.636,4.182-5.724c0.566-1.054,1.06-2.147,1.476-3.269
						c0.285-0.77,0.864-1.909,0.777-2.734c-0.551,0.233-0.977,1.174-1.309,1.663c-0.684,1.006-1.43,1.938-2.273,2.816
						C59.461,226.253,57.355,227.963,56.006,230.27z"/>
					<path style="fill:#753C17;" d="M46.643,236.456c1.275,1.55,1.935,3.593,1.807,5.596c-0.604-0.113-0.91-0.77-1.166-1.329
						c-0.563-1.23-1.339-2.379-2.369-3.256c-1.03-0.877-2.325-1.472-3.676-1.543c-0.955-0.051-2.193-0.286-1.539-1.512
						c0.374-0.702,0.999-0.979,1.768-0.899C43.402,233.713,45.432,234.984,46.643,236.456z"/>
				</g>
				<path style="fill:#F2594B;" d="M46.33,191.657c-0.713,1.576-1.397,3.303-1.02,4.99c0.374,1.672,1.714,2.943,3.074,3.985
					c8.092,6.194,18.944,7.875,29.058,6.627c1.263-0.156,2.573-0.375,3.605-1.119c1.162-0.838,1.793-2.212,2.338-3.537
					c2.512-6.119,4.226-12.566,5.072-19.126c0.785-6.089,1.153-12.319-1.946-17.862c-2.088-3.733-5.403-6.766-9.307-8.515
					c-0.717-0.321-1.482-0.605-2.266-0.554c-0.965,0.062-1.821,0.618-2.608,1.18c-8.896,6.359-15.188,15.639-21.287,24.716
					c-1.025,1.525-2.055,3.057-2.891,4.696C47.403,188.602,47.002,190.171,46.33,191.657z"/>
				<g>
					<path style="fill:#A1633A;" d="M104.99,196.86c0.445-0.296,0.924-0.527,1.451-0.653c1.169-0.28,2.387,0.002,3.575,0.182
						c2.641,0.4,5.358,0.285,7.956-0.337c0.696-0.166,1.56-0.318,2.015,0.234c0.288,0.349,0.278,0.871,0.095,1.284
						c-0.183,0.413-0.509,0.743-0.829,1.063c0.203-0.2,1.641-0.229,1.988-0.318c0.956-0.244,1.91-0.496,2.862-0.757
						c0.741-0.203,1.458-0.576,2.21-0.28c0.69,0.271,1.229,0.896,1.396,1.618c0.167,0.722-0.043,1.52-0.543,2.067
						c0.977-0.424,2.175-0.333,3.041,0.286c0.867,0.618,1.345,1.76,1.121,2.801c-0.225,1.041-1.172,1.899-2.235,1.962
						c0.909-0.069,1.831,0.51,2.163,1.359c0.792,2.025-1.402,3.727-2.956,4.426c1.689,0.212,2.741,2.439,1.832,3.878
						c-0.675,1.068-2.009,1.475-3.231,1.797c-8.102,2.135-16.309,4.082-24.674,4.574c-1.42,0.084-2.906,0.113-4.193-0.495
						c-1.367-0.646-2.315-1.917-3.18-3.158c-0.971-1.393-1.944-2.877-2.328-4.555c-0.357-1.558,0.009-3.122-0.355-4.628
						c3.75-3.063,7.248-6.434,10.447-10.07C103.34,198.321,104.095,197.457,104.99,196.86z"/>
					<path style="fill:#753C17;" d="M116.967,198.664c-2.62,0.385-5.196,1.066-7.664,2.027c-0.175,0.068-0.366,0.153-0.442,0.325
						c-0.098,0.223,0.06,0.493,0.28,0.6c0.219,0.107,0.476,0.092,0.718,0.066c1.564-0.167,3.065-0.697,4.526-1.281
						c1.579-0.631,3.255-1.267,4.721-2.132C118.37,198.194,117.688,198.558,116.967,198.664z"/>
					<g>
						<path style="fill:#753C17;" d="M115.298,203.894c-0.278,0.084-0.598,0.213-0.664,0.495c-0.058,0.248,0.129,0.502,0.363,0.603
							c0.234,0.101,0.5,0.085,0.753,0.057c2.612-0.29,4.974-1.635,7.478-2.435c0.692-0.221,1.396-0.402,2.082-0.642
							c0.523-0.183,1.245-0.395,1.642-0.795c-0.379-0.036-0.843,0.189-1.222,0.266c-0.826,0.169-1.661,0.297-2.488,0.463
							c-1.713,0.344-3.416,0.74-5.105,1.186C117.186,203.342,116.24,203.61,115.298,203.894z"/>
						<path style="fill:#753C17;" d="M118.927,207.915c-0.56,0.107-1.126,0.217-1.64,0.462c-0.159,0.076-0.317,0.168-0.418,0.313
							c-0.1,0.145-0.127,0.353-0.022,0.494c0.113,0.151,0.327,0.176,0.516,0.18c1.693,0.033,3.317-0.606,4.909-1.186
							c2.325-0.847,4.733-1.419,7.065-2.218c-0.536-0.014-1.106,0.173-1.63,0.273c-0.702,0.135-1.405,0.269-2.107,0.404
							c-1.418,0.272-2.835,0.544-4.253,0.815C120.54,207.606,119.734,207.76,118.927,207.915z"/>
						<path style="fill:#753C17;" d="M118.946,213.119c-0.215,0.036-0.435,0.074-0.621,0.188c-0.186,0.113-0.331,0.321-0.306,0.537
							c0.026,0.221,0.224,0.391,0.438,0.452c0.214,0.061,0.442,0.036,0.662,0.007c3.211-0.421,6.257-1.508,9.29-2.593
							c-1.113-0.07-2.189,0.183-3.293,0.369c-1.315,0.222-2.63,0.443-3.945,0.665C120.43,212.869,119.688,212.994,118.946,213.119z"
							/>
					</g>
				</g>
			</g>
		</g>
		<g>
			<path d="M378.783,168.787c0.777,4.614,4.514,7.907,9.086,8.539c2.06,0.285,4.457,0.099,6.341-0.853
				c1.053-0.532,1.68-1.467,2.912-1.649c1.163-0.171,2.445,0.255,3.426,0.858c1.655,1.016,3.063,2.533,4.944,3.014
				c3.801,0.972,7.162-2.609,10.963-3.579c5.156-1.316,10.576,2.323,15.769,1.161c4.225-0.945,7.537-5.935,9.236-9.667
				c1.315-2.889,1.719-6.362,0.312-9.207c-2.138-4.322-8.035-6.685-8.286-11.501c-0.174-3.339,2.55-6.011,4.11-8.968
				c2.112-4.003,2.055-9.071-0.147-13.025c-2.107-3.784-5.908-6.405-7.989-10.203c-2.116-3.86-2.215-8.453-2.943-12.795
				c-0.949-5.653-3.1-11.088-6.194-15.909c-2.762-4.304-7.069-9.987-11.848-12.203c-9.926-4.601-23.239-3.171-32.605,2.057
				c-11.212,6.258-18.039,19.464-16.701,32.166c0.571,5.419,2.35,10.982,0.735,16.187c-1.088,3.507-3.59,6.363-5.496,9.502
				c-1.906,3.138-3.237,7.087-1.734,10.437c1.775,3.958,7.124,6.267,7.02,10.603c-0.075,3.129-3.049,5.303-4.523,8.064
				c-1.873,3.508-1.022,8.249,1.952,10.888c2.975,2.638,7.784,2.917,11.043,0.639c-0.173,0.121,2.588,1.503,2.873,1.57
				c1.242,0.294,2.405,0.208,3.529-0.343C376.644,173.553,378.428,171.041,378.783,168.787z"/>
			<g>
				<path style="fill:#8CC63F;" d="M345.524,180.494c-0.589,0.892-1.16,1.787-1.714,2.678c-2.229,3.587-4.232,7.31-6.122,11.085
					c-0.973,1.942-1.914,3.9-2.841,5.865c-0.368,0.781-2.77,4.603-2.468,5.3c-3.279-7.568-6.022-15.329-9.328-22.939
					c-1.645-3.788-3.316-7.564-5.013-11.329c-1.479-3.282-2.417-6.614-3.737-9.968c-4.383,1.861-9.208,2.67-13.958,2.34
					c0.137,2.338,0.301,4.675,0.489,7.01c0.991,12.287,2.684,24.518,5.065,36.613c1.191,6.048,2.553,12.061,4.086,18.031
					c1.291,5.028,2.34,10.341,6.472,13.882c2.723,2.334,6.486,3.225,10.061,2.938c3.575-0.287,6.986-1.66,10.113-3.417
					c11.89-6.678,19.814-18.56,26.772-30.288c3.495-5.89,6.885-11.903,9.052-18.4c2.167-6.497,3.061-13.565,1.478-20.229
					c-0.596-2.508-1.975-7.73-4.77-8.712c-2.628-0.923-6.681,1.979-8.72,3.363C354.439,168.388,349.555,174.389,345.524,180.494z"/>
				<path style="fill:#69952F;" d="M333.983,215.172c0.221,1.427,0.451,2.883,1.117,4.165c0.324,0.624,0.928,1.268,1.611,1.1
					c0.638-0.157,0.896-0.912,1.008-1.559c0.884-5.132-1.024-11.103-5.12-14.445c-0.753,1.011,0.263,3.495,0.438,4.625
					C333.352,211.096,333.667,213.134,333.983,215.172z"/>
				<path style="fill:#69952F;" d="M325.514,231.757c1.581,1.461,2.482,3.63,2.401,5.781c-0.777-0.062-1.384-0.721-1.713-1.427
					c-0.329-0.706-0.463-1.49-0.775-2.204c-0.578-1.323-1.816-2.306-3.199-2.678c-0.54-0.146-3.544,0.185-3.586-0.145
					c-0.088-0.688,2.061-1.186,2.489-1.211C322.686,229.782,324.405,230.733,325.514,231.757z"/>
				<path style="fill:#69952F;" d="M345.489,198.525c-1.812,9.529-0.577,19.808,4.463,28.096c4.856-5.212,9.537-11.275,10.046-18.38
					c0.289-4.035-0.809-8.021-1.517-12.004c-1.465-8.242-1.262-16.778,0.594-24.941c-0.131,0.577-1.515,1.788-1.917,2.299
					c-0.818,1.04-1.575,2.136-2.316,3.231c-1.487,2.194-2.857,4.468-4.079,6.82C348.328,188.33,346.477,193.333,345.489,198.525z"/>
			</g>
			<g>
				<path style="fill:#8CC63F;" d="M424.915,225.634c0.183-2.652,0.555-5.287,1.16-7.887c1.82-7.82,4.491-14.856,5.503-22.956
					c1.783-14.274-0.661-28.482-16.074-33.337c-16.45-6.595-29.303-7.559-38.886-4.165c-3.048,0.715-5.901,1.963-8.876,2.858
					c-2.86,0.86-4.254,3.407-5.574,5.975c-8.224,15.995-10.746,34.849-7.014,52.443c1.31,6.176,2.693,11.585,2.291,18.002
					c-0.465,7.431-2.199,14.783-5.136,21.626c-0.955,2.224-2.059,4.533-1.824,6.942c0.392,4.025,4.259,6.693,7.834,8.583
					c23.171,12.252,50.705,16.032,76.32,10.477c-1.218-12.65-5.417-24.801-7.935-37.257
					C425.299,239.985,424.425,232.752,424.915,225.634z"/>
				<path style="fill:#69952F;" d="M402.605,227.126c-0.649,0.998-1.341,1.98-2.077,2.947c-7.246,9.506-17.163,16.997-28.377,21.173
					c1.805,8.634,8.398,16.103,16.741,18.967c2.337,0.651,4.517,1.535,6.956,1.949c3.278,0.555,6.784,1.773,10.112,1.599
					c3.404-0.178,6.464-2.339,9.015-4.405c3.957-3.205,7.736-6.63,11.315-10.252c1.06-1.073,2.14-2.227,2.542-3.68
					c0.571-2.062-0.338-4.205-1.079-6.213c-3.583-9.702-3.491-20.305-3.797-30.642c-0.16-5.415-0.464-10.853-1.469-16.186
					c-0.879-4.661-2.27-11.442-5.672-15.004c-4.334-4.538-4.6,4.614-4.749,6.847C411.276,206.019,408.995,217.305,402.605,227.126z"
					/>
			</g>
			<g>
				<g>
					<path style="fill:#A1633A;" d="M380.431,148.873c-0.231,2.838-0.757,6.505-3.449,7.982c-2.496,1.37-5.857,1.534-7.669,3.975
						c-1.764,2.377-0.947,5.827,0.671,8.306c3.48,5.328,9.915,8.039,16.216,8.928c6.108,0.862,12.405,0.228,18.25-1.726
						c5.233-1.75,11.708-4.674,14.443-9.783c0.687-1.283,0.583-2.941-0.441-4.026c-0.619-0.656-1.441-1.078-2.257-1.463
						c-2.204-1.042-4.512-1.926-6.478-3.368c-2.251-1.652-3.446-3.782-3.821-6.516c-0.403-2.941-0.551-5.944-0.643-8.91
						c-0.177-5.66,0.487-11.249-0.098-16.836c-0.127-1.216,0.104-4.674-0.998-5.344c-0.89-0.541-2.464,0.715-3.268,1.105
						c-3.578,1.735-8.078,1.752-11.868,1.818c-0.428,0.007-0.855,0.01-1.282,0.008c-0.642-0.004-1.31-0.012-1.901,0.295
						c-0.768,0.398-1.274,1.277-1.491,2.18c-1.643,6.846-2.708,13.814-3.667,20.784C380.559,147.162,380.5,148.025,380.431,148.873z
						"/>
					<path style="fill:#753C17;" d="M379.854,155.279c-0.011,0.242-0.021,0.485-0.029,0.727c-0.01,0.303-0.016,0.618,0.095,0.89
						c0.449,1.09,2.816,0.99,3.728,0.915c1.674-0.137,3.339-0.51,4.95-1.089c3.277-1.177,6.335-3.202,8.864-5.849
						c4.064-4.256,6.749-10.04,7.741-16.057c0.156-0.944,0.32-2.024,0.104-2.956c-0.227-0.977-0.928-0.912-1.78-0.912
						c-2.515,0.003-5.037,0.424-7.501,1.107c-3.087,0.856-6.208,2.19-8.682,4.542c-1.22,1.16-2.296,2.568-3.424,3.844
						c-0.689,0.78-1.533,1.697-2.081,2.604c-0.628,1.04-0.758,2.631-0.986,3.821C380.319,149.645,379.984,152.461,379.854,155.279z"
						/>
				</g>
			</g>
			<g>
				<g>
					<path style="fill:#A1633A;" d="M363.694,116.742c0.43,4.92,1.272,9.801,2.567,14.57c0.71,2.612,1.555,5.188,2.539,7.71
						c1.052,2.696,2.456,5.537,5.067,6.784c2.305,1.101,5.013,0.698,7.53,0.264c5.665-0.978,11.405-2.025,16.578-4.532
						c3.014-1.461,5.815-3.461,8.011-6.004c2.418-2.799,3.044-5.55,4.042-8.949c1.686-5.742,2.68-11.686,2.974-17.663
						c0.16-3.249,0.113-6.507-0.143-9.75c-0.234-2.977-0.364-6.176-1.673-8.874c-2.308-4.757-5.752-9.247-10.645-11.531
						c-3.565-1.664-7.611-2.026-11.541-1.851c-4.965,0.221-9.992,1.304-14.215,3.924c-3.759,2.333-6.163,5.607-8.72,9.107
						c-2.425,3.319-2.252,8.542-2.513,12.578C363.246,107.257,363.281,112.017,363.694,116.742z"/>
					<g>
						<path style="fill:#753C17;" d="M373.452,123.61c-0.289,0.642-0.581,1.294-0.679,1.991c-0.098,0.697,0.024,1.457,0.485,1.989
							c0.597,0.69,1.655,0.846,2.52,0.558c0.866-0.289,1.562-0.946,2.12-1.668c2.323-3.007,2.587-7.313,2.174-10.956
							c-0.064-0.566-0.159-1.151-0.482-1.62c-0.323-0.469-0.937-0.784-1.473-0.593c-0.652,0.233-0.868,1.027-1.028,1.7
							C376.365,118.055,374.728,120.779,373.452,123.61z"/>
						<g>
							<path d="M385.783,114.835c0.034,0.656,0.219,1.341,0.805,1.846c0.586,0.506,1.66,0.764,2.46,0.441
								c0.671-0.271,0.967-0.85,1.101-1.393c0.276-1.116,0.085-2.29-0.541-3.331c-0.437-0.727-1.759-1.64-2.777-0.822
								C385.871,112.348,385.733,113.868,385.783,114.835z"/>
							<path style="fill:none;stroke:#000000;stroke-linecap:round;stroke-linejoin:round;stroke-miterlimit:10;" d="
								M382.535,108.474c0.767-2.412,3.194-4.194,5.725-4.203c2.531-0.009,4.971,1.754,5.757,4.16"/>
						</g>
						<g>
							<path d="M367.543,115.186c0.034,0.656,0.22,1.341,0.805,1.846c0.586,0.506,1.66,0.764,2.46,0.441
								c0.671-0.271,0.967-0.85,1.101-1.393c0.276-1.116,0.085-2.289-0.541-3.331c-0.437-0.727-1.759-1.64-2.777-0.822
								C367.632,112.699,367.494,114.218,367.543,115.186z"/>
							<path style="fill:none;stroke:#000000;stroke-linecap:round;stroke-linejoin:round;stroke-miterlimit:10;" d="
								M373.855,104.748c-1.189-1.353-3.268-1.715-4.968-1.118c-1.7,0.597-3.022,2.02-3.806,3.641"/>
						</g>
						<g>
							<path d="M382.215,131.265c-0.595,0.107-1.194,0.193-1.795,0.256c-2.808,0.293-5.642,0.146-8.459-0.046
								c0.075,2.037-0.317,4.028-0.317,6.044c0.545,0.235,1.11,0.417,1.682,0.573C375.592,135.06,378.706,132.678,382.215,131.265z"
								/>
							<path style="fill:#F79B93;" d="M389.144,128.887c-0.188-0.181-0.495-0.042-0.717,0.096c-1.341,0.835-2.809,1.438-4.333,1.859
								c-0.618,0.171-1.246,0.309-1.879,0.423c-3.509,1.413-6.623,3.795-8.889,6.826c0.186,0.051,0.37,0.11,0.559,0.153
								c6.415,1.443,13.887-2.039,15.332-8.814C389.258,129.243,389.282,129.019,389.144,128.887z"/>
						</g>
					</g>
				</g>
				<path d="M378.125,100.21c8.343,2.07,17.245,1.948,25.888,1.336c-1.766,2.599-3.546,5.222-4.722,8.136
					c-1.176,2.914-1.715,6.18-0.915,9.219c0.799,3.039,3.107,5.779,6.155,6.543c-0.975-0.245-3.345,4.267-3.677,4.985
					c-0.902,1.956-1.412,4.095-1.502,6.247c-0.17,4.07,0.768,8.791,5.817,8.42c-1.38,2.183-3.399,3.899-4.453,6.271
					c-1.075,2.42-1.316,5.227-0.55,7.771c1.184,3.932,4.715,7.055,8.762,7.748c4.047,0.693,8.417-1.076,10.842-4.389
					c0.943,0.283,1.987-0.055,2.764-0.659c0.777-0.605,1.329-1.446,1.832-2.292c1.789-3.008,3.151-6.355,3.324-9.851
					c0.285-5.761-3.992-12.878-10.316-13.127c2.718-5.163,5.394-10.762,4.77-16.564c-0.3-2.788-1.777-5.843-4.517-6.437
					c0.282,0.061,0.467-5.786,0.437-6.308c-0.113-1.918-0.731-3.625-0.946-5.515c-0.501-4.398-1.877-8.676-3.757-12.671
					c-1.766-3.752-3.984-7.347-6.994-10.199c-3.01-2.852-6.871-4.925-11.001-5.287c-3.618-0.316-7.217,0.672-10.671,1.796
					c-5.265,1.713-10.507,3.816-14.831,7.274c-0.982,0.785-1.811,1.706-2.744,2.537c-0.658,0.586-1.525,0.919-2.081,1.603
					c-1.451,1.787-0.971,4.794,0.174,6.585c1.446,2.262,3.924,3.642,6.4,4.681C373.733,98.956,375.91,99.66,378.125,100.21z"/>
			</g>
			<g>
				<g>
					<path style="fill:#753C17;" d="M306.247,138.828c-0.72-0.066-1.582,0.227-2.115,0.725c-0.452,0.422-0.692,1.209-0.969,1.766
						c-0.688,1.383-1.273,2.816-1.754,4.284c-0.962,2.936-1.504,6.01-1.606,9.098c-0.057,1.743,0.026,3.49,0.253,5.219
						c0.032,0.246,0.101,1.523,0.522,1.422c0.19-0.046,0.715-1.093,0.828-1.304c0.275-0.513,0.53-1.036,0.764-1.569
						c0.482-1.097,0.876-2.232,1.175-3.393c0.261-1.014,0.853-1.907,1.289-2.867c0.548-1.207,1.077-2.422,1.576-3.65
						c0.867-2.133,2.024-4.508,2.173-6.834C308.473,140.351,307.759,138.967,306.247,138.828z"/>
					<polygon style="fill:#B54338;" points="348.908,126.959 292.467,156.786 290.486,152.841 348.109,125.368 					"/>
				</g>
				<g>
					<polygon style="fill:#F2594B;" points="356.364,143.249 293.14,152.074 292.62,147.69 356.155,141.482 					"/>
					<g>
						<path style="fill:#A1633A;" d="M303.628,169.28c2.848,1.094,6.795,1.093,9.435-0.482c2.9-1.731,5.367-4.128,7.402-6.808
							c0.298-0.393,0.592-0.798,0.764-1.26c0.173-0.462,0.215-0.993,0.01-1.441c-0.352-0.771-1.279-1.068-2.11-1.235
							c0.602-0.708,1.218-1.443,1.494-2.331s0.123-1.977-0.61-2.549c-0.787-0.614-1.921-0.442-2.868-0.129
							c1.516-0.757,2.633-1.966,3.982-2.924c1.422-1.009,2.73-2.213,3.886-3.516c0.378-0.426,0.735-0.886,0.927-1.422
							s0.201-1.163-0.095-1.649c-0.342-0.563-1.031-0.84-1.69-0.859c-0.659-0.019-1.302,0.18-1.931,0.378
							c0.377-0.391,0.761-0.79,1-1.277c0.24-0.487,0.318-1.085,0.07-1.569c-0.237-0.463-0.738-0.749-1.251-0.841
							c-0.513-0.092-1.04-0.016-1.55,0.086c-1.68,0.338-3.286,0.965-4.882,1.589c-2.545,0.994-5.091,1.989-7.636,2.983
							c-0.999,0.391-2.208,0.677-3.09,1.309c-0.813,0.583-1.494,1.642-2.124,2.42c-1.38,1.703-2.641,3.541-3.395,5.614
							C297.492,158.516,297.706,166.984,303.628,169.28z"/>
						<g>
							<path style="fill:#753C17;" d="M310.654,149.56c-0.63,0.278-1.583,0.8-2.083,0.065c-0.1-0.147-0.16-0.331-0.125-0.506
								c0.101-0.507,1.262-0.804,1.68-0.982c0.671-0.287,1.345-0.567,2.019-0.846c1.007-0.415,2.02-0.816,3.023-1.239
								c1.204-0.508,2.408-1.014,3.616-1.513c1.123-0.463,2.441-1.25,3.633-1.43c-0.623,0.726-1.878,1.258-2.71,1.758
								c-0.979,0.588-1.97,1.156-2.973,1.702C314.749,147.65,312.721,148.648,310.654,149.56z"/>
							<path style="fill:#753C17;" d="M310.951,156.708c-0.125,0.057-0.273,0.113-0.395,0.05c-0.149-0.077-0.167-0.296-0.081-0.44
								c0.086-0.143,0.241-0.228,0.39-0.305c2.091-1.088,4.318-2.296,6.572-2.987c-0.704,0.794-1.951,1.323-2.868,1.842
								C313.391,155.534,312.184,156.148,310.951,156.708z"/>
							<path style="fill:#753C17;" d="M311.234,162.377c-0.184-0.295-0.108-0.697,0.094-0.98c0.202-0.284,0.506-0.474,0.805-0.653
								c1.3-0.779,2.65-1.473,4.04-2.079c0.411-0.179,3.489-1.642,3.281-0.716c-0.078,0.346-1.488,0.888-1.827,1.076
								c-0.716,0.398-1.435,0.79-2.158,1.176C314.069,160.95,312.658,161.675,311.234,162.377z"/>
						</g>
					</g>
				</g>
				<g>
					<path style="fill:#466320;" d="M345.914,128.952l-3.978,1.663c-2.476,1.035-4.139,3.522-3.891,6.195
						c0.025,0.267,0.061,0.54,0.112,0.82c0.004,0.022,0.008,0.045,0.012,0.067c0.563,2.99,3.302,5.077,6.344,5.012
						c1.222-0.026,2.451-0.046,3.826,0.06L345.914,128.952z"/>
					<g>
						<g>
							<path style="fill:#51791B;" d="M341.049,137.218c0.823,3.807,4.576,6.225,8.383,5.402c3.807-0.823,6.225-4.576,5.402-8.383
								c-0.823-3.807-4.576-6.225-8.383-5.402C342.645,129.658,340.226,133.412,341.049,137.218z"/>
							<path style="fill:#FFFFFF;" d="M342.179,136.974c0.688,3.183,3.826,5.205,7.009,4.517c3.183-0.688,5.205-3.826,4.517-7.009
								s-3.826-5.205-7.009-4.517S341.491,133.791,342.179,136.974z"/>
							<path style="fill:#51791B;" d="M343.239,131.633c0.873-0.389,1.862-0.497,2.807-0.348c0.944,0.149,1.843,0.547,2.615,1.111
								c0.808,0.59,1.493,1.379,1.843,2.317c0.35,0.938,0.338,2.031-0.145,2.907c-0.013,0.023-0.025,0.046-0.039,0.068
								c-0.868,1.473-3.176,1.97-4.306,0.514c-0.469-0.605-0.614-1.444-0.39-2.177c0.067-0.22,0.17-0.437,0.343-0.588
								c0.173-0.151,0.428-0.225,0.64-0.138c0.213,0.087,0.345,0.361,0.239,0.565c-0.089,0.172-0.296,0.241-0.441,0.368
								c-0.289,0.254-0.293,0.728-0.098,1.06c0.195,0.332,0.541,0.545,0.89,0.706c0.258,0.119,0.531,0.219,0.816,0.235
								c0.66,0.038,1.277-0.543,1.571-1.092c0.321-0.599,0.362-1.332,0.149-1.977c-0.293-0.89-1.024-1.574-1.827-2.057
								c-1.036-0.624-2.274-0.979-3.467-0.779c-1.193,0.2-2.313,1.022-2.676,2.176"/>
						</g>
						<g>
							<path style="fill:#F2594B;" d="M351.203,132.717c0.001,0.12-0.011,0.248-0.081,0.346c-0.115,0.162-0.36,0.188-0.538,0.099
								c-0.177-0.089-0.295-0.266-0.372-0.449c-0.097-0.229-0.143-0.478-0.134-0.726c0.011-0.312,0.313-0.916,0.679-0.577
								C351.076,131.705,351.201,132.304,351.203,132.717z"/>
							<path style="fill:#F2594B;" d="M352.797,134.452c0.073,0.189,0.05,0.422-0.09,0.568c-0.107,0.112-0.268,0.161-0.423,0.156
								c-0.155-0.006-0.304-0.062-0.44-0.136c-0.246-0.133-0.459-0.325-0.616-0.555c-0.29-0.425,0.049-0.787,0.52-0.724
								C352.128,133.812,352.653,134.082,352.797,134.452z"/>
							<path style="fill:#F2594B;" d="M352.473,138.06c-0.098,0.145-0.205,0.289-0.354,0.38c-0.149,0.091-0.349,0.119-0.496,0.025
								c-0.117-0.074-0.181-0.213-0.192-0.351c-0.011-0.138,0.025-0.275,0.074-0.405c0.139-0.368,0.653-1.214,1.161-0.978
								C353.176,136.968,352.656,137.79,352.473,138.06z"/>
							<path style="fill:#F2594B;" d="M347.419,134.591c-0.049,0.107-0.116,0.209-0.209,0.28c-0.093,0.072-0.218,0.109-0.332,0.08
								c-0.202-0.052-0.301-0.281-0.333-0.487c-0.056-0.357-0.003-1.357,0.587-1.208
								C347.636,133.384,347.584,134.237,347.419,134.591z"/>
							<path style="fill:#F2594B;" d="M349.928,139.959c-0.028,0.241-0.135,0.479-0.323,0.633c-0.106,0.087-0.263,0.144-0.378,0.068
								c-0.09-0.06-0.118-0.179-0.131-0.286c-0.028-0.234-0.019-0.476,0.055-0.701c0.059-0.181,0.363-0.737,0.626-0.587
								C349.957,139.191,349.947,139.795,349.928,139.959z"/>
							<path style="fill:#F2594B;" d="M344.43,137.168c-0.073,0.12-0.211,0.191-0.35,0.207s-0.281-0.016-0.412-0.066
								c-0.374-0.144-1.206-0.823-0.813-1.289c0.315-0.374,0.984-0.087,1.257,0.182C344.335,136.421,344.626,136.848,344.43,137.168
								z"/>
							<path style="fill:#F2594B;" d="M348.374,137.045c-0.098,0.154-0.227,0.297-0.395,0.367c-0.169,0.07-0.383,0.053-0.51-0.078
								c-0.149-0.153-0.138-0.397-0.11-0.609c0.063-0.481,0.351-1.266,1.002-1.074C348.908,135.812,348.575,136.729,348.374,137.045
								z"/>
							<path style="fill:#F2594B;" d="M345.338,135.009c-0.052,0.14-0.202,0.219-0.348,0.25c-0.362,0.077-0.754-0.072-1.005-0.344
								c-0.272-0.295-0.688-1.47,0.075-1.373C344.554,133.604,345.542,134.46,345.338,135.009z"/>
							<path style="fill:#F2594B;" d="M345.761,140.222c-0.119,0.165-0.326,0.303-0.519,0.236c-0.171-0.06-0.254-0.255-0.277-0.434
								c-0.04-0.31,0.22-1.388,0.724-1.152C346.124,139.074,345.97,139.932,345.761,140.222z"/>
							<path style="fill:#F2594B;" d="M348.99,131.446c-0.028,0.122-0.127,0.234-0.252,0.245c-0.073,0.007-0.145-0.02-0.212-0.05
								c-0.243-0.109-0.465-0.267-0.648-0.461c-0.159-0.168-0.309-0.408-0.209-0.645c0.082-0.195,0.286-0.311,0.489-0.245
								C348.535,130.412,349.084,131.032,348.99,131.446z"/>
						</g>
					</g>
				</g>
			</g>
		</g>
		<g>
			<g>
				<path style="fill:#B5852A;" d="M246.906,433.595c-7.342,2.718-13.834,7.423-19.128,13.15c-2.749,2.974-5.188,6.233-7.301,9.687
					c-0.754,1.233-4.376,11.305-4.656,11.322c-5.032,0.315-10.075,0.446-15.116,0.391c-0.414-0.004-0.906-0.054-1.107-0.417
					c-0.149-0.268-0.069-0.6,0.014-0.896c0.419-1.496,0.839-2.993,1.258-4.489c3.387-12.083,7.283-23.39,15.023-33.472
					c3.574-4.656,7.708-8.892,12.334-12.508c2.265-1.771,4.648-3.393,7.134-4.837c0.694-0.403,7.353-3.33,7.348-3.608
					C242.857,416.984,243.831,425.194,246.906,433.595z"/>
				<path style="fill:#B5852A;" d="M299.906,469.873c2.773-12.533,0.714-26.071-5.66-37.212s-17.003-19.777-29.212-23.737
					c0.073,7.927-0.843,16.495-2.243,24.298c14.672,6.113,24.933,20.514,26.167,36.361"/>
			</g>
			<polyline style="fill:#795105;" points="227.231,276.942 243.785,429.609 265.857,429.609 281.952,276.942 			"/>
			<polygon style="fill:#B5852A;" points="247.741,413.699 250.5,472.216 259.543,472.216 263.069,413.699 			"/>
		</g>
		<g>
			<g>
				<path style="fill:#F2594B;" d="M262.306,426.097c1.798-0.085,3.524-0.796,5.267-1.292c4.168-1.187,8.983-1.048,12.442,1.564
					c1.083,0.818,2.07,2.113,1.719,3.425c-0.222,0.829-0.924,1.428-1.588,1.972c-4.826,3.947-9.653,7.894-14.479,11.842
					c-1.907,1.56-3.89,3.16-6.267,3.809c-2.169,0.593-4.468,0.339-6.702,0.081c-0.351-0.402-2.822-0.327-3.401-0.393
					c-1.228-0.142-2.456-0.284-3.684-0.426c-2.456-0.284-4.912-0.568-7.368-0.852c-2.456-0.284-4.912-0.568-7.368-0.852
					c-2.019-0.233-4.792-0.39-6.007-2.329c-0.541-0.863-0.572-1.94-0.586-2.959c-0.088-6.168-0.175-12.335-0.263-18.503
					c-0.012-0.845,0.011-1.784,0.594-2.395c0.968-1.014,2.631-0.432,3.977-0.038c3.171,0.927,6.758,0.292,9.419-1.666
					c1.498-1.103,2.791-2.634,4.599-3.072c2.473-0.599,4.998,1.01,6.229,3.076c1.445,2.424,4.365,4.411,6.611,6.237
					c1.826,1.485,3.995,2.729,6.348,2.781C261.968,426.107,262.138,426.104,262.306,426.097z"/>
				<path style="fill:none;stroke:#000000;stroke-linecap:round;stroke-linejoin:round;stroke-miterlimit:10;" d="M253.486,413.292
					c1.445-0.103,2.991,0.817,3.304,2.231c0.381,1.723-1.132,3.375-2.812,3.914c-1.68,0.539-3.493,0.308-5.257,0.323
					c-2.035,0.018-4.154,0.413-5.76,1.663c-1.606,1.249-2.538,3.516-1.772,5.402c0.402,0.99,1.448,1.846,2.478,1.559
					c1.674-0.467,2.277-3.466,2.826-4.865c0.477-1.213,0.87-2.448,1.308-3.675C248.733,417.221,250.266,413.521,253.486,413.292z"/>
				<g>
					<path style="fill:none;stroke:#000000;stroke-linecap:round;stroke-linejoin:round;stroke-miterlimit:10;" d="M266.226,425.377
						c-0.988-0.23-1.931,0.496-2.622,1.239c-1.554,1.673-2.73,3.696-3.415,5.874"/>
					<path style="fill:none;stroke:#000000;stroke-linecap:round;stroke-linejoin:round;stroke-miterlimit:10;" d="M260.341,424.606
						c-2.129,1.53-3.678,3.846-4.279,6.398"/>
					<path style="fill:none;stroke:#000000;stroke-linecap:round;stroke-linejoin:round;stroke-miterlimit:10;" d="M255.421,423.121
						c-1.894,1.576-3.426,3.585-4.444,5.828"/>
				</g>
				<path style="fill:none;stroke:#000000;stroke-linecap:round;stroke-linejoin:round;stroke-miterlimit:10;" d="M280.249,426.443
					c-4.469,5.593-10.933,9.135-16.911,13.075c-1.658,1.093-3.333,2.245-5.256,2.74c-1.614,0.415-3.309,0.342-4.973,0.258
					c-9.424-0.474-18.836-1.173-28.226-2.098"/>
			</g>
			<g>
				<path style="fill:#1A1A1A;" d="M82.92,319.334c3.346,0.903,6.876,1.298,10.336,1.671c4.338,0.468,8.886,1.441,13.204,1.55
					c7.117,0.18,14.237,0.185,21.355,0.235c13.662,0.096,27.026,0.626,40.688,1.6c7.391,0.527,15.046,1.02,21.997-1.545
					c5.373-1.982,13.653-8.46,12.54-15.185c-1.016-6.133-8.49-11.28-13.435-14.031c-9.872-5.493-20.782-8.809-31.629-11.965
					c-14.863-4.325-29.821-8.432-45.076-11.054c-9.512-1.635-19.306-2.889-28.952-1.776c-5.029,0.581-10.099,1.471-15.164,2.076
					c-1.268,0.151-2.613,0.334-3.599,1.146c-1.476,1.215-1.646,3.372-1.702,5.283c-0.214,7.32-0.417,14.745,1.32,21.859
					c1.737,7.114,5.686,14.003,12.022,17.674C78.739,317.981,80.793,318.76,82.92,319.334z"/>
				<g>
					<path style="fill:#1A1A1A;" d="M201.143,303.424c3.702,4.001,6.071,9.026,8.322,13.99c2.136,4.71,4.203,9.451,6.214,14.215
						c5.91,13.999,11.891,27.953,17.633,42.042c1.479,3.627,17.162,42.387,15.844,43.023c-8.257,3.987-17.125,6.706-26.198,8.034
						c-6.834-12.587-13.811-25.141-20.941-37.474c-3.74-6.469-7.486-12.935-11.229-19.403
						c-9.204-15.905-19.625-31.341-29.437-47.006c0.062,0.099,10.594-11.341,11.477-12.5c3.706-4.862,5.518-8.811,11.551-11.022
						C190.321,295.143,197.185,299.145,201.143,303.424z"/>
					<path d="M171.872,314.98c0.846-0.327,1.861-0.566,2.611-0.056c0.866,0.59,0.886,1.951,0.287,2.811
						c-0.599,0.861-1.62,1.317-2.618,1.637c-1.739,0.558-3.56,0.828-5.3,1.384c-1.717,0.549-3.364,1.421-4.461,2.891
						C163.929,319.797,168.109,316.432,171.872,314.98z"/>
					<path style="fill:none;stroke:#000000;stroke-linecap:round;stroke-linejoin:round;stroke-miterlimit:10;" d="M234.267,421.016
						c-1.069-3.128-2.137-6.257-3.206-9.385c-9.867-28.883-20.559-57.31-34.853-84.375c-3.222-6.1-6.321-9.32-12.457-12.351
						c-6.16-3.043-13.044-4.287-19.79-5.246c-10.805-1.537-21.697-2.468-32.606-2.787c-7.912-0.231-15.875-0.145-23.676-1.485
						c-7.801-1.34-15.555-4.235-21.317-9.662c-5.762-5.426-9.218-13.686-7.535-21.42"/>
				</g>
			</g>
			<path style="fill:#F2594B;" d="M63.144,291.207c0.059,0.498,0.142,1.043,0.517,1.375c0.453,0.401,1.139,0.333,1.736,0.24
				c7.911-1.22,15.84-2.444,23.572-4.515c7.732-2.071,15.296-5.015,21.958-9.452c-2.929-4.987-6.264-10.078-11.358-12.816
				c-5.292-2.844-11.645-2.696-17.625-2.127c-5.98,0.569-12.111,1.477-17.917-0.065c-1.76-0.467-3.276-1.216-4.394-2.678
				c-0.064,4.912,1.158,10.169,1.738,15.06C61.961,281.222,62.552,286.214,63.144,291.207z"/>
		</g>
		<g>
			<g>
				<ellipse style="fill:#B5852A;" cx="252.917" cy="274.91" rx="158.48" ry="36.519"/>
				<ellipse style="fill:#F2A10A;" cx="252.917" cy="270.412" rx="158.48" ry="32.021"/>
			</g>
			<g>
				<path d="M204.766,248.231v-14.199c0-1.655,1.273-3.032,2.923-3.162l21.556-1.701c1.845-0.146,3.422,1.312,3.422,3.163v14.594
					L204.766,248.231z"/>
				<polygon style="fill:#CCCCCC;" points="232.758,243.843 233.993,223.162 206.687,225.651 207.29,245.442 				"/>
				<polygon style="fill:#E6E6E6;" points="235.065,243.843 236.301,224.885 208.724,224.247 209.597,245.442 				"/>
				<path style="fill:#1A1A1A;" d="M210.629,248.231v-14.199c0-1.655,1.273-3.032,2.923-3.162l21.556-1.701
					c1.845-0.146,3.422,1.312,3.422,3.163v14.594L210.629,248.231z"/>
			</g>
			<g>
				<g>
					<ellipse cx="259.698" cy="267.83" rx="56.101" ry="16.703"/>
					<path style="fill:#333333;" d="M210.83,264.645c9.977-4.177,26.715-9.724,48.063-10.053
						c23.193-0.358,41.322,5.604,51.607,9.862c-11.633-3.832-29.399-8.192-51.319-7.947
						C238.717,256.736,222.064,260.896,210.83,264.645z"/>
				</g>
				<g>
					<g>
						<path style="fill:#8CC63F;" d="M253.108,260.661c0,0.828-0.447,1.584-1.179,1.971c-1.543,0.815-4.105,1.825-7.359,1.745
							c-2.904-0.071-5.189-0.981-6.634-1.747c-0.728-0.386-1.172-1.142-1.172-1.966v-9.262c0-0.758,0.376-1.474,1.02-1.874
							c1.436-0.892,4-2.113,7.355-2.062c3.157,0.048,5.563,1.198,6.95,2.062c0.643,0.4,1.018,1.115,1.018,1.872V260.661z"/>
						<g>
							<path style="fill:#466320;" d="M242.802,264.227v-11.274c0.336,0.094,0.75,0.181,1.227,0.224
								c0.469,0.042,0.886,0.031,1.229,0c0,3.735,0,7.47,0,11.205c-0.437,0.008-0.911-0.002-1.416-0.04
								C243.475,264.313,243.128,264.274,242.802,264.227z"/>
							<path style="fill:#466320;" d="M247.097,264.221c-0.046-3.709-0.094-7.417-0.14-11.126c0.264,0.01,0.612-0.005,1.008-0.101
								c0.252-0.062,0.468-0.143,0.644-0.224c0,3.715,0,7.43,0,11.145L247.097,264.221z"/>
						</g>
					</g>
					<g>
						<g>
							<path style="fill:#FFFFFF;" d="M252.111,250.403c0.04-0.889-3.517-2.017-6.761-2.038c-3.36-0.021-6.987,1.143-6.946,2.038
								c0.041,0.91,3.874,1.53,6.629,1.561C248.089,251.998,252.07,251.333,252.111,250.403z"/>
							<path style="fill:#8CC63F;" d="M244.009,249.513c-0.268,0.06-0.541,0.133-0.757,0.302c-0.216,0.169-0.361,0.457-0.283,0.72
								c0.104,0.355,0.529,0.493,0.896,0.543c1.183,0.163,2.412-0.021,3.496-0.525c0.09-0.042,0.189-0.098,0.208-0.195
								c0.025-0.122-0.102-0.231-0.226-0.239c-0.124-0.008-0.241,0.051-0.353,0.105c-0.714,0.345-1.51,0.52-2.303,0.507
								c-0.161-0.003-0.328-0.015-0.471-0.089c-0.143-0.074-0.258-0.225-0.243-0.386c0.012-0.13,0.104-0.239,0.204-0.324
								c0.436-0.373,1.046-0.451,1.619-0.476c1.557-0.068,3.128,0.139,4.606,0.633c0.484,0.161,0.996,0.386,1.236,0.837
								c0.063,0.119,0.116,0.261,0.241,0.312c0.18,0.074,0.378-0.116,0.391-0.31c0.04-0.627-0.633-0.767-1.091-0.929
								c-0.558-0.198-1.129-0.36-1.709-0.484c-1.156-0.248-2.346-0.344-3.527-0.274
								C245.292,249.281,244.644,249.371,244.009,249.513z"/>
						</g>
						<g>
							<path style="fill:#F2594B;" d="M241.625,249.744c-0.033,0.093-0.039,0.211,0.036,0.274c0.042,0.036,0.099,0.046,0.154,0.049
								c0.215,0.012,0.434-0.065,0.594-0.21c0.093-0.084,0.168-0.194,0.186-0.319c0.035-0.254-0.184-0.435-0.407-0.318
								C241.965,249.338,241.713,249.495,241.625,249.744z"/>
							<path style="fill:#F2594B;" d="M248.651,250.684c0.053,0.15,0.182,0.272,0.335,0.316c0.113,0.033,0.248,0.02,0.332-0.064
								c0.067-0.068,0.089-0.17,0.081-0.264c-0.013-0.147-0.096-0.286-0.218-0.368C248.854,250.087,248.511,250.289,248.651,250.684
								z"/>
							<path style="fill:#F2594B;" d="M244.525,248.792c-0.081,0.093-0.116,0.249-0.026,0.333c0.073,0.068,0.188,0.055,0.283,0.028
								c0.118-0.033,0.231-0.079,0.338-0.139c0.075-0.042,0.154-0.103,0.156-0.188C245.287,248.477,244.65,248.647,244.525,248.792z
								"/>
							<path style="fill:#F2594B;" d="M245.239,249.916c-0.102,0.102-0.131,0.291-0.02,0.384c0.071,0.059,0.174,0.06,0.265,0.042
								c0.113-0.023,0.222-0.071,0.314-0.14c0.089-0.066,0.169-0.175,0.132-0.279C245.835,249.656,245.38,249.776,245.239,249.916z"
								/>
							<path style="fill:#F2594B;" d="M239.962,250.639c0.102,0.107,0.261,0.181,0.399,0.126c0.136-0.055,0.2-0.212,0.221-0.358
								c0.042-0.292-0.148-0.878-0.554-0.705C239.672,249.853,239.746,250.411,239.962,250.639z"/>
							<path style="fill:#F2594B;" d="M242.025,251.242c0.064,0.137,0.182,0.254,0.329,0.29c0.147,0.036,0.319-0.023,0.391-0.156
								c0.062-0.114,0.042-0.26-0.026-0.37c-0.068-0.11-0.176-0.19-0.29-0.251C242.017,250.533,241.86,250.89,242.025,251.242z"/>
						</g>
					</g>
				</g>
				<g>
					<g>
						<path style="fill:#51791B;" d="M234.318,265.042c0,0.828-0.447,1.584-1.179,1.971c-1.543,0.815-4.105,1.825-7.359,1.745
							c-2.904-0.071-5.189-0.981-6.634-1.747c-0.728-0.386-1.172-1.142-1.172-1.966v-9.262c0-0.758,0.376-1.474,1.02-1.874
							c1.436-0.892,4-2.113,7.355-2.062c3.157,0.048,5.563,1.198,6.95,2.062c0.642,0.4,1.018,1.115,1.018,1.872V265.042z"/>
						<g>
							<path style="fill:#8CC63F;" d="M224.012,268.608v-11.274c0.336,0.094,0.75,0.181,1.227,0.224
								c0.469,0.042,0.886,0.031,1.229,0c0,3.735,0,7.47,0,11.205c-0.437,0.008-0.911-0.003-1.416-0.04
								C224.685,268.694,224.338,268.655,224.012,268.608z"/>
							<path style="fill:#8CC63F;" d="M228.307,268.602c-0.046-3.709-0.094-7.417-0.14-11.126c0.264,0.01,0.612-0.005,1.008-0.101
								c0.252-0.061,0.468-0.143,0.644-0.224c0,3.715,0,7.43,0,11.145L228.307,268.602z"/>
						</g>
					</g>
					<g>
						<g>
							<path style="fill:#FFFFFF;" d="M233.322,254.783c0.04-0.889-3.517-2.017-6.761-2.037c-3.36-0.021-6.987,1.143-6.947,2.037
								c0.041,0.91,3.874,1.53,6.629,1.561C229.299,256.379,233.28,255.714,233.322,254.783z"/>
							<path style="fill:#51791B;" d="M225.219,253.894c-0.267,0.06-0.541,0.133-0.757,0.302c-0.216,0.169-0.361,0.457-0.283,0.72
								c0.104,0.355,0.529,0.493,0.896,0.543c1.183,0.163,2.412-0.021,3.496-0.525c0.09-0.042,0.189-0.098,0.208-0.195
								c0.025-0.122-0.102-0.231-0.225-0.239c-0.124-0.009-0.241,0.051-0.353,0.105c-0.714,0.345-1.51,0.52-2.303,0.507
								c-0.161-0.003-0.328-0.014-0.471-0.089c-0.143-0.074-0.258-0.225-0.243-0.386c0.012-0.13,0.104-0.239,0.204-0.324
								c0.436-0.373,1.046-0.451,1.619-0.476c1.557-0.068,3.128,0.139,4.606,0.633c0.484,0.161,0.997,0.386,1.236,0.837
								c0.063,0.118,0.116,0.261,0.241,0.312c0.18,0.074,0.378-0.116,0.391-0.31c0.04-0.627-0.633-0.767-1.091-0.929
								c-0.558-0.198-1.129-0.36-1.708-0.484c-1.156-0.248-2.346-0.344-3.527-0.274
								C226.502,253.662,225.854,253.751,225.219,253.894z"/>
						</g>
						<g>
							<path style="fill:#F2594B;" d="M222.835,254.125c-0.033,0.093-0.039,0.21,0.036,0.274c0.042,0.036,0.099,0.046,0.154,0.049
								c0.215,0.012,0.434-0.065,0.594-0.21c0.093-0.084,0.168-0.194,0.186-0.319c0.035-0.254-0.184-0.435-0.407-0.318
								C223.175,253.719,222.923,253.876,222.835,254.125z"/>
							<path style="fill:#F2594B;" d="M229.861,255.065c0.053,0.15,0.182,0.272,0.335,0.316c0.113,0.033,0.248,0.02,0.332-0.064
								c0.067-0.068,0.09-0.17,0.081-0.264c-0.013-0.147-0.095-0.286-0.218-0.368C230.064,254.467,229.721,254.669,229.861,255.065z
								"/>
							<path style="fill:#F2594B;" d="M225.735,253.172c-0.081,0.093-0.116,0.249-0.026,0.333c0.073,0.068,0.188,0.055,0.283,0.028
								c0.118-0.033,0.231-0.08,0.338-0.139c0.075-0.042,0.154-0.103,0.156-0.188C226.497,252.857,225.86,253.028,225.735,253.172z"
								/>
							<path style="fill:#F2594B;" d="M226.449,254.297c-0.102,0.102-0.131,0.292-0.02,0.384c0.071,0.059,0.174,0.06,0.265,0.042
								c0.113-0.023,0.222-0.071,0.314-0.139c0.089-0.066,0.169-0.175,0.132-0.279C227.045,254.037,226.59,254.157,226.449,254.297z
								"/>
							<path style="fill:#F2594B;" d="M221.173,255.02c0.102,0.107,0.261,0.181,0.399,0.126c0.136-0.055,0.201-0.212,0.221-0.358
								c0.042-0.292-0.148-0.878-0.554-0.705C220.883,254.234,220.956,254.791,221.173,255.02z"/>
							<path style="fill:#F2594B;" d="M223.235,255.623c0.064,0.137,0.182,0.254,0.329,0.29c0.147,0.036,0.319-0.023,0.391-0.156
								c0.062-0.114,0.042-0.26-0.026-0.37c-0.068-0.11-0.176-0.19-0.29-0.252C223.227,254.914,223.07,255.271,223.235,255.623z"/>
						</g>
					</g>
				</g>
				<g>
					<g>
						<path style="fill:#466320;" d="M247.573,275.086c0,0.828-0.447,1.584-1.179,1.971c-1.543,0.815-4.104,1.825-7.359,1.745
							c-2.904-0.071-5.189-0.981-6.634-1.747c-0.728-0.386-1.172-1.142-1.172-1.967v-9.262c0-0.758,0.376-1.474,1.02-1.874
							c1.436-0.892,4-2.113,7.355-2.062c3.157,0.048,5.563,1.198,6.95,2.063c0.642,0.4,1.018,1.115,1.018,1.872V275.086z"/>
						<g>
							<path style="fill:#51791B;" d="M237.268,278.652v-11.274c0.336,0.093,0.75,0.181,1.227,0.224
								c0.469,0.042,0.886,0.031,1.229,0c0,3.735,0,7.47,0,11.205c-0.437,0.008-0.911-0.003-1.416-0.041
								C237.94,278.738,237.594,278.699,237.268,278.652z"/>
							<path style="fill:#51791B;" d="M241.563,278.646c-0.047-3.709-0.094-7.418-0.14-11.126c0.264,0.01,0.612-0.005,1.008-0.101
								c0.252-0.062,0.468-0.143,0.644-0.224c0,3.715,0,7.43,0,11.145L241.563,278.646z"/>
						</g>
					</g>
					<g>
						<g>
							<path style="fill:#FFFFFF;" d="M246.577,264.828c0.04-0.889-3.517-2.017-6.761-2.038c-3.36-0.021-6.987,1.143-6.947,2.038
								c0.041,0.91,3.874,1.53,6.629,1.561C242.554,266.423,246.536,265.758,246.577,264.828z"/>
							<path style="fill:#51791B;" d="M238.474,263.938c-0.267,0.06-0.541,0.133-0.757,0.302c-0.216,0.169-0.361,0.457-0.283,0.72
								c0.104,0.355,0.529,0.493,0.896,0.543c1.183,0.163,2.412-0.021,3.496-0.525c0.09-0.042,0.189-0.098,0.208-0.195
								c0.025-0.122-0.102-0.231-0.225-0.239c-0.124-0.008-0.241,0.051-0.353,0.105c-0.714,0.345-1.51,0.52-2.303,0.507
								c-0.161-0.003-0.328-0.014-0.471-0.089c-0.143-0.074-0.258-0.225-0.243-0.386c0.012-0.13,0.105-0.239,0.204-0.324
								c0.436-0.373,1.046-0.451,1.619-0.476c1.557-0.068,3.128,0.139,4.606,0.633c0.484,0.162,0.997,0.386,1.237,0.837
								c0.063,0.119,0.116,0.261,0.24,0.312c0.18,0.074,0.378-0.116,0.391-0.31c0.04-0.627-0.633-0.767-1.091-0.929
								c-0.558-0.198-1.129-0.36-1.708-0.484c-1.156-0.248-2.346-0.344-3.527-0.274C239.757,263.706,239.11,263.796,238.474,263.938
								z"/>
						</g>
						<g>
							<path style="fill:#F2594B;" d="M236.091,264.169c-0.033,0.093-0.039,0.211,0.036,0.274c0.042,0.036,0.099,0.046,0.154,0.049
								c0.215,0.012,0.434-0.065,0.594-0.21c0.093-0.084,0.168-0.194,0.185-0.319c0.035-0.254-0.184-0.435-0.407-0.318
								C236.43,263.763,236.178,263.92,236.091,264.169z"/>
							<path style="fill:#F2594B;" d="M243.116,265.109c0.053,0.15,0.182,0.272,0.335,0.316c0.113,0.033,0.248,0.02,0.332-0.064
								c0.067-0.068,0.089-0.17,0.081-0.264c-0.013-0.147-0.096-0.286-0.218-0.367C243.319,264.512,242.977,264.714,243.116,265.109
								z"/>
							<path style="fill:#F2594B;" d="M238.99,263.216c-0.081,0.093-0.116,0.249-0.026,0.333c0.073,0.068,0.188,0.055,0.283,0.028
								c0.118-0.033,0.231-0.079,0.338-0.139c0.075-0.042,0.154-0.103,0.156-0.188C239.753,262.901,239.116,263.072,238.99,263.216z
								"/>
							<path style="fill:#F2594B;" d="M239.705,264.341c-0.102,0.102-0.131,0.292-0.02,0.384c0.071,0.059,0.174,0.06,0.265,0.042
								c0.113-0.023,0.222-0.071,0.314-0.139c0.089-0.066,0.169-0.175,0.132-0.279C240.3,264.081,239.846,264.201,239.705,264.341z"
								/>
							<path style="fill:#F2594B;" d="M234.428,265.064c0.102,0.108,0.261,0.181,0.399,0.126c0.136-0.055,0.201-0.212,0.221-0.358
								c0.042-0.292-0.148-0.878-0.554-0.705C234.138,264.278,234.211,264.835,234.428,265.064z"/>
							<path style="fill:#F2594B;" d="M236.49,265.667c0.064,0.137,0.182,0.254,0.329,0.29c0.147,0.036,0.319-0.023,0.391-0.156
								c0.062-0.114,0.042-0.26-0.026-0.37c-0.068-0.11-0.176-0.19-0.29-0.251C236.482,264.958,236.325,265.315,236.49,265.667z"/>
						</g>
					</g>
				</g>
				<g>
					<path style="fill:#FFFFFF;" d="M255.627,265.511c0.236,0.313,0.613,0.479,0.974,0.633c0.765,0.326,1.578,0.659,2.401,0.544
						c0.473-0.066,0.932-0.279,1.408-0.239c0.431,0.037,0.815,0.278,1.223,0.422c1.089,0.383,2.285,0.063,3.394-0.258
						c0.576-0.167,1.153-0.334,1.729-0.501c0.66-0.191,1.433-0.5,1.56-1.175c1.087,0.599,2.615,0.182,3.246-0.887
						c0.785,0.298,1.731-0.14,2.14-0.874c0.409-0.733,0.335-1.672-0.051-2.418c-0.386-0.746-1.046-1.319-1.764-1.755
						c-0.902-0.547-1.908-0.903-2.93-1.165c-2.288-0.589-4.745-0.721-6.991,0.011c-1.37,0.446-2.63,1.217-3.666,2.218
						c-0.531,0.512-0.964,1.082-1.388,1.682c-0.349,0.494-0.771,0.888-1.055,1.43C255.502,263.859,255.094,264.805,255.627,265.511z
						"/>
					<path style="fill:#F2594B;" d="M256.643,263.43c-0.391-0.616-0.426-1.413-0.217-2.112c0.209-0.699,0.638-1.314,1.123-1.86
						c1.735-1.956,4.206-3.138,6.743-3.77c1.711-0.426,3.532-0.62,5.227-0.134c1.695,0.486,3.241,1.756,3.682,3.463
						c0.255,0.987,0.075,2.155-0.706,2.809c-0.847,0.709-2.101,0.616-3.168,0.331c-1.067-0.286-2.14-0.729-3.237-0.591
						c-0.979,0.123-1.84,0.696-2.62,1.3c-0.781,0.604-1.542,1.267-2.463,1.624C259.805,264.953,257.401,264.623,256.643,263.43z"/>
					<path style="fill:#51791B;" d="M262.996,257.52c0.336,0.155,0.636,0.356,0.867,0.616c0.839,0.942,1.636,1.744,2.123,2.942
						c0.591,1.457,0.704,3.104,0.317,4.628c-0.075,0.297-0.134,0.686,0.129,0.842c0.156,0.093,0.355,0.048,0.53,0
						c0.84-0.233,1.672-0.495,2.493-0.786c0.514-0.182,1.061-0.403,1.352-0.865c0.242-0.384,0.208-0.74,0.19-1.16
						c-0.017-0.401,0.055-0.808,0.042-1.212c-0.027-0.828-0.178-1.652-0.44-2.438c-0.511-1.537-1.447-2.938-2.71-3.957
						c-0.638-0.514-1.365-0.941-2.165-1.115c-1.292-0.28-2.634,0.124-3.838,0.669c-0.656,0.297-1.353,0.707-1.556,1.398
						C261.139,257.048,262.177,257.144,262.996,257.52z"/>
				</g>
				<g>
					<path style="fill:#FFFFFF;" d="M276.886,265.511c0.236,0.313,0.613,0.479,0.974,0.633c0.765,0.326,1.578,0.659,2.401,0.544
						c0.473-0.066,0.932-0.279,1.408-0.239c0.432,0.037,0.815,0.278,1.223,0.422c1.089,0.383,2.285,0.063,3.393-0.258
						c0.577-0.167,1.153-0.334,1.729-0.501c0.66-0.191,1.433-0.5,1.56-1.175c1.087,0.599,2.615,0.182,3.246-0.887
						c0.785,0.298,1.731-0.14,2.14-0.874s0.335-1.672-0.051-2.418c-0.386-0.746-1.046-1.319-1.764-1.755
						c-0.902-0.547-1.908-0.903-2.93-1.165c-2.288-0.589-4.745-0.721-6.991,0.011c-1.37,0.446-2.63,1.217-3.666,2.218
						c-0.531,0.512-0.964,1.082-1.388,1.682c-0.349,0.494-0.771,0.888-1.055,1.43C276.762,263.859,276.354,264.805,276.886,265.511z
						"/>
					<path style="fill:#F2594B;" d="M277.903,263.43c-0.391-0.616-0.426-1.413-0.217-2.112c0.209-0.699,0.638-1.314,1.123-1.86
						c1.735-1.956,4.206-3.138,6.743-3.77c1.711-0.426,3.532-0.62,5.227-0.134c1.695,0.486,3.241,1.756,3.682,3.463
						c0.255,0.987,0.075,2.155-0.706,2.809c-0.847,0.709-2.101,0.616-3.168,0.331c-1.067-0.286-2.14-0.729-3.237-0.591
						c-0.98,0.123-1.84,0.696-2.62,1.3c-0.781,0.604-1.542,1.267-2.463,1.624C281.064,264.953,278.66,264.623,277.903,263.43z"/>
					<path style="fill:#8CC63F;" d="M284.256,257.52c0.337,0.155,0.636,0.356,0.867,0.616c0.839,0.942,1.636,1.744,2.123,2.942
						c0.591,1.457,0.704,3.104,0.317,4.628c-0.075,0.297-0.134,0.686,0.129,0.842c0.156,0.093,0.355,0.048,0.53,0
						c0.84-0.233,1.672-0.495,2.493-0.786c0.514-0.182,1.061-0.403,1.352-0.865c0.242-0.384,0.208-0.74,0.19-1.16
						c-0.017-0.401,0.055-0.808,0.042-1.212c-0.027-0.828-0.178-1.652-0.439-2.438c-0.511-1.537-1.447-2.938-2.71-3.957
						c-0.638-0.514-1.365-0.941-2.165-1.115c-1.292-0.28-2.634,0.124-3.838,0.669c-0.656,0.297-1.353,0.707-1.556,1.398
						C282.399,257.048,283.437,257.144,284.256,257.52z"/>
				</g>
				<g>
					<path style="fill:#FFFFFF;" d="M258.279,275.677c0.236,0.313,0.613,0.479,0.973,0.633c0.765,0.326,1.578,0.659,2.401,0.544
						c0.473-0.066,0.932-0.279,1.408-0.239c0.432,0.037,0.815,0.278,1.223,0.422c1.089,0.383,2.285,0.063,3.393-0.258
						c0.577-0.167,1.153-0.334,1.73-0.501c0.66-0.191,1.433-0.5,1.56-1.175c1.087,0.599,2.615,0.182,3.246-0.887
						c0.785,0.298,1.731-0.14,2.14-0.874s0.335-1.672-0.051-2.418c-0.386-0.746-1.046-1.319-1.763-1.755
						c-0.902-0.547-1.908-0.903-2.93-1.165c-2.288-0.589-4.745-0.721-6.991,0.011c-1.37,0.446-2.63,1.217-3.666,2.218
						c-0.53,0.512-0.964,1.082-1.388,1.682c-0.349,0.494-0.771,0.888-1.055,1.43C258.155,274.024,257.747,274.97,258.279,275.677z"
						/>
					<path style="fill:#F2594B;" d="M259.296,273.595c-0.391-0.616-0.426-1.413-0.217-2.113c0.209-0.699,0.638-1.314,1.123-1.86
						c1.735-1.956,4.206-3.138,6.743-3.77c1.711-0.426,3.532-0.62,5.227-0.134c1.695,0.486,3.241,1.756,3.682,3.463
						c0.255,0.987,0.075,2.155-0.706,2.809c-0.847,0.709-2.101,0.616-3.168,0.331c-1.067-0.286-2.14-0.729-3.237-0.591
						c-0.98,0.123-1.84,0.696-2.62,1.3s-1.542,1.267-2.463,1.624C262.457,275.119,260.053,274.788,259.296,273.595z"/>
					<path style="fill:#8CC63F;" d="M265.649,267.686c0.336,0.155,0.636,0.356,0.867,0.616c0.839,0.942,1.636,1.744,2.123,2.942
						c0.591,1.457,0.704,3.104,0.317,4.628c-0.075,0.297-0.134,0.686,0.129,0.842c0.156,0.093,0.355,0.048,0.53-0.001
						c0.84-0.233,1.672-0.495,2.493-0.786c0.514-0.182,1.061-0.403,1.352-0.865c0.242-0.384,0.208-0.74,0.19-1.16
						c-0.017-0.4,0.055-0.808,0.042-1.212c-0.027-0.828-0.178-1.652-0.44-2.438c-0.511-1.537-1.447-2.938-2.71-3.957
						c-0.638-0.514-1.365-0.941-2.165-1.115c-1.292-0.28-2.634,0.124-3.838,0.669c-0.656,0.297-1.353,0.707-1.556,1.398
						C263.792,267.214,264.83,267.31,265.649,267.686z"/>
				</g>
				<g>
					<path style="fill:#FFFFFF;" d="M287.108,273.664c0.236,0.313,0.613,0.479,0.973,0.633c0.765,0.326,1.578,0.659,2.401,0.544
						c0.473-0.066,0.932-0.28,1.408-0.238c0.431,0.037,0.815,0.278,1.223,0.422c1.089,0.383,2.285,0.063,3.393-0.258
						c0.577-0.167,1.153-0.334,1.73-0.501c0.66-0.191,1.433-0.5,1.56-1.175c1.087,0.599,2.615,0.182,3.246-0.887
						c0.785,0.297,1.731-0.14,2.14-0.874s0.335-1.672-0.051-2.418c-0.386-0.746-1.046-1.319-1.764-1.755
						c-0.902-0.547-1.908-0.903-2.93-1.165c-2.288-0.589-4.745-0.72-6.991,0.011c-1.37,0.446-2.63,1.217-3.666,2.218
						c-0.53,0.512-0.964,1.082-1.388,1.682c-0.349,0.494-0.771,0.888-1.055,1.43C286.983,272.012,286.575,272.957,287.108,273.664z"
						/>
					<path style="fill:#F2594B;" d="M288.124,271.582c-0.391-0.616-0.426-1.413-0.217-2.112c0.209-0.7,0.638-1.314,1.123-1.86
						c1.735-1.956,4.206-3.138,6.743-3.77c1.711-0.426,3.532-0.62,5.227-0.134c1.695,0.486,3.241,1.756,3.682,3.463
						c0.255,0.987,0.075,2.155-0.706,2.809c-0.847,0.709-2.101,0.616-3.168,0.331c-1.067-0.286-2.14-0.729-3.237-0.591
						c-0.979,0.123-1.84,0.696-2.62,1.3c-0.781,0.604-1.542,1.267-2.463,1.624C291.286,273.106,288.882,272.775,288.124,271.582z"/>
					<path style="fill:#51791B;" d="M294.477,265.673c0.336,0.155,0.636,0.356,0.867,0.616c0.839,0.942,1.636,1.744,2.123,2.942
						c0.591,1.457,0.704,3.104,0.317,4.628c-0.075,0.297-0.134,0.686,0.129,0.842c0.156,0.093,0.355,0.048,0.53,0
						c0.84-0.233,1.671-0.495,2.493-0.786c0.514-0.182,1.061-0.403,1.352-0.865c0.242-0.384,0.208-0.74,0.19-1.16
						c-0.017-0.401,0.055-0.808,0.042-1.212c-0.027-0.828-0.178-1.652-0.44-2.438c-0.511-1.537-1.447-2.938-2.71-3.957
						c-0.638-0.514-1.364-0.941-2.165-1.115c-1.292-0.28-2.634,0.124-3.838,0.669c-0.656,0.297-1.352,0.707-1.556,1.398
						C292.62,265.201,293.658,265.297,294.477,265.673z"/>
				</g>
			</g>
			<g>
				<path d="M191.104,255.324c-2.792,4.348-9.312,6.367-15.008,5.286c-2.955-0.561-5.644-1.959-7.638-3.853
					c-1.688-1.603-4.058-4.471-2.836-6.65c0.564-1.005,1.725-1.679,2.896-2.206c6.076-2.732,13.877-2.569,19.782,0.412
					c1.447,0.731,2.848,1.69,3.404,3.023C192.247,252.639,191.884,254.109,191.104,255.324z"/>
				<g>
					<g>
						<path style="fill:#F2594B;" d="M174.031,249.592c-2.067,0.303-4.067,0.904-5.904,1.751c1.214,1.725,7.666,3.106,9.39,3.034
							c2.899-0.088,10.138,0.384,11.642-2.192c-1.837-1.424-4.413-2.123-6.919-2.492
							C179.531,249.293,176.74,249.195,174.031,249.592z"/>
						<path style="fill:#B54338;" d="M175.284,250.811c-0.502,0.128-1.077,0.342-1.175,0.773c-0.086,0.377,0.253,0.733,0.633,0.951
							c0.989,0.568,2.287,0.577,3.478,0.45c1.191-0.128,2.388-0.371,3.577-0.234c0.511,0.059,1.009,0.188,1.521,0.241
							c0.512,0.053,1.062,0.022,1.495-0.213c0.432-0.235,0.699-0.716,0.502-1.114c-0.134-0.271-0.45-0.453-0.781-0.55
							c-0.331-0.097-0.685-0.123-1.031-0.173c-0.689-0.099-1.357-0.297-1.969-0.58c-0.636-0.295-0.846-0.371-1.562-0.306
							C178.378,250.199,176.819,250.419,175.284,250.811z"/>
					</g>
					<path style="fill:#1A1A1A;" d="M169.106,249.502c-1.201,0.625-1.394,1.253-0.979,1.841c1.837-0.847,3.837-1.448,5.904-1.751
						c2.709-0.397,5.5-0.299,8.208,0.1c2.506,0.369,5.082,1.068,6.919,2.492c0.145-0.248,0.256-0.514,0.285-0.822
						C185.255,245.901,175.266,247.1,169.106,249.502z"/>
				</g>
			</g>
			<g>
				<path d="M308.765,246.221c-2.792,4.275-9.312,6.261-15.008,5.198c-2.955-0.551-5.645-1.926-7.638-3.788
					c-1.688-1.576-4.058-4.396-2.836-6.539c0.564-0.988,1.725-1.651,2.896-2.169c6.076-2.686,13.877-2.526,19.782,0.406
					c1.447,0.718,2.848,1.662,3.404,2.972C309.908,243.581,309.545,245.026,308.765,246.221z"/>
				<g>
					<g>
						<path style="fill:#F2594B;" d="M291.691,240.585c-2.067,0.298-4.067,0.889-5.904,1.722c1.214,1.696,7.666,3.053,9.39,2.983
							c2.899-0.087,10.138,0.378,11.642-2.155c-1.837-1.4-4.413-2.088-6.919-2.45C297.191,240.292,294.4,240.195,291.691,240.585z"
							/>
						<path style="fill:#B54338;" d="M292.945,241.785c-0.502,0.126-1.077,0.336-1.175,0.76c-0.086,0.371,0.253,0.721,0.633,0.935
							c0.989,0.558,2.287,0.568,3.478,0.442c1.191-0.125,2.388-0.365,3.577-0.23c0.511,0.058,1.009,0.185,1.521,0.237
							c0.512,0.052,1.062,0.021,1.495-0.21c0.432-0.231,0.699-0.704,0.502-1.095c-0.134-0.266-0.45-0.445-0.781-0.541
							c-0.331-0.096-0.685-0.121-1.031-0.17c-0.689-0.097-1.357-0.292-1.969-0.57c-0.636-0.29-0.846-0.365-1.562-0.301
							C296.039,241.182,294.48,241.398,292.945,241.785z"/>
					</g>
					<path style="fill:#1A1A1A;" d="M286.767,240.497c-1.201,0.614-1.394,1.232-0.979,1.811c1.837-0.833,3.837-1.424,5.904-1.722
						c2.709-0.39,5.5-0.294,8.208,0.099c2.506,0.363,5.082,1.05,6.919,2.45c0.145-0.244,0.256-0.505,0.285-0.808
						C302.916,236.957,292.927,238.136,286.767,240.497z"/>
				</g>
			</g>
			<g>
				<path d="M129.894,276.702c-0.956-13.813-1.911-27.625-2.866-41.437c2.112-1.357,7.712-4.548,15.377-4.265
					c5.367,0.198,9.427,2.014,11.601,3.192c-1.014,14.46-2.028,28.92-3.042,43.38c-1.654,0.907-5.999,2.998-11.751,2.45
					C134.712,279.592,131.47,277.749,129.894,276.702z"/>
				<g>
					<path style="fill:#1A1A1A;" d="M147.536,237.616c1.032,0.27,2.042,0.653,2.971,1.171c0.616-0.501,0.995-1.038,0.988-1.59
						c-0.023-2.049-5.223-3.818-9.254-4.139c-5.865-0.466-12.684,1.865-12.703,4.139c-0.008,0.972,1.237,2.004,3.137,2.825
						C137.023,237.239,142.535,236.309,147.536,237.616z"/>
					<path style="fill:#6598B8;" d="M147.536,237.616c-5-1.307-10.512-0.377-14.862,2.405c2.679,1.158,6.668,1.894,10.371,1.429
						c2.643-0.332,5.87-1.37,7.461-2.663C149.578,238.269,148.567,237.885,147.536,237.616z"/>
				</g>
			</g>
			<g>
				<g>
					<ellipse cx="179.28" cy="278.875" rx="22.947" ry="10.463"/>
					<path style="fill:#333333;" d="M159.319,277.532c2.581-1.755,10.396-6.582,21.319-6.128c9.184,0.382,15.7,4.296,18.383,6.128
						c-3.236-1.813-9.648-4.832-18.255-5.17C170.357,271.953,162.606,275.695,159.319,277.532z"/>
				</g>
				<g>
					<g>
						<path style="fill:#FFFFFF;" d="M163.14,281.656c0.057,0.383,0.513,0.693,0.884,0.647c0.368-0.046,0.672-0.395,0.667-0.766
							c0.033,0.452,0.069,0.916,0.261,1.327s0.578,0.763,1.031,0.78c0.5,0.019,0.943-0.381,1.116-0.85
							c0.173-0.469,0.126-0.99,0.03-1.481c0.137,0.285,0.527,0.381,0.819,0.262c0.292-0.119,0.491-0.402,0.598-0.699
							c0.248-0.693,0.036-1.527-0.512-2.018c-0.243,0.388-0.607,0.713-1.044,0.848c-0.438,0.136-0.949,0.061-1.291-0.244
							c-0.342-0.305-0.468-0.848-0.245-1.248c-0.817,0.499-1.476,1.229-1.891,2.091C163.394,280.653,163.091,281.241,163.14,281.656
							z"/>
						<g>
							<path style="fill:#F2594B;" d="M177.867,274.652c-0.599,0.206-1.25,0.25-1.887,0.294c-1.416,0.097-2.868,0.216-4.153,0.82
								c-1.999,0.94-3.286,2.89-4.812,4.488c-0.209,0.219-0.429,0.436-0.704,0.563c-0.274,0.127-0.616,0.148-0.868-0.019
								c-0.443-0.294-0.391-0.953-0.264-1.47c0.448-1.826,1.207-3.582,2.267-5.137c1.705-2.502,4.477-4.844,7.658-4.861
								c1.773-0.009,3.636,1.017,4.155,2.713c0.154,0.503,0.261,1.003,0.009,1.486c-0.231,0.442-0.638,0.788-1.086,0.997
								C178.079,274.574,177.973,274.616,177.867,274.652z"/>
							<g>
								<path style="fill:#B54338;" d="M175.787,271.627c0.502,0.674,0.722,1.553,0.596,2.384c0.691-0.624,0.808-1.786,0.254-2.534
									c-0.337-0.456-0.867-0.74-1.415-0.886c-0.562-0.15-1.137-0.147-1.71-0.192C174.373,270.314,175.298,270.97,175.787,271.627z
									"/>
								<path style="fill:#B54338;" d="M173.105,274.747c0.488-0.708,0.431-1.744-0.134-2.394c-0.487-0.561-1.766-1.007-2.394-0.421
									c0.202,0.088,0.448,0.064,0.66,0.144c0.342,0.129,0.664,0.399,0.918,0.655C172.687,273.27,173.042,273.99,173.105,274.747z"
									/>
								<path style="fill:#B54338;" d="M169.901,276.505c0.189-0.412,0.234-0.898,0.073-1.321c-0.143-0.375-0.461-0.698-0.851-0.809
									c-0.227-0.065-0.928-0.096-0.855,0.268c0.045,0.223,0.668,0.472,0.832,0.617
									C169.478,275.592,169.694,276.056,169.901,276.505z"/>
							</g>
						</g>
					</g>
					<g>
						<path style="fill:#FFFFFF;" d="M170.077,283.028c-0.005,0.057-0.006,0.114-0.003,0.172c0.018,0.364,0.243,0.738,0.596,0.832
							c0.371,0.099,0.747-0.124,1.052-0.357c-0.195,0.585-0.092,1.261,0.268,1.762c0.152,0.212,0.392,0.407,0.648,0.359
							c0.191-0.036,0.331-0.195,0.447-0.35c0.354-0.471,0.638-0.994,0.842-1.547c0.007,0.339,0.125,0.688,0.38,0.911
							c0.255,0.223,0.659,0.287,0.939,0.097c0.253-0.172,0.354-0.505,0.329-0.81c-0.062-0.755-0.599-1.434-1.016-2.031
							c-0.073-0.105-0.154-0.216-0.268-0.253c-0.168-0.054-0.334,0.073-0.497,0.144c-0.57,0.249-1.317-0.175-1.233-0.839
							c0.016-0.128,0.063-0.251,0.073-0.379c0.01-0.128-0.027-0.273-0.138-0.34c-0.141-0.085-0.321-0.007-0.462,0.079
							c-0.68,0.414-1.253,1.001-1.65,1.691C170.233,282.433,170.103,282.725,170.077,283.028z"/>
						<g>
							<path style="fill:#B54338;" d="M175.671,275.922c-1.351,1.354-2.488,2.94-3.357,4.618c-0.156,0.301-0.306,0.616-0.324,0.955
								c-0.018,0.338,0.128,0.707,0.432,0.856c0.352,0.173,0.77,0.008,1.119-0.171c1.611-0.823,3.057-1.93,4.604-2.867
								c0.864-0.523,1.768-0.993,2.725-1.322c0.961-0.33,1.958-0.297,2.91-0.571c0.911-0.262,1.824-0.751,2.261-1.592
								c0.482-0.928,0.246-2.145-0.475-2.903c-1.284-1.352-3.336-1.104-4.872-0.444c-0.82,0.353-1.603,0.788-2.353,1.271
								C177.382,274.371,176.487,275.104,175.671,275.922z"/>
							<g>
								<path style="fill:#F2594B;" d="M175.82,278.491c0.486,0.304,0.869,0.77,1.073,1.305c0.254-0.717-0.07-1.593-0.73-1.971
									c-0.591-0.338-1.572-0.264-2.001,0.307C174.688,277.968,175.373,278.212,175.82,278.491z"/>
								<path style="fill:#F2594B;" d="M177.528,275.21c1.292,0.07,2.488,1.025,2.841,2.27c0.369-0.455,0.358-1.15,0.046-1.646
									c-0.312-0.496-0.877-0.798-1.457-0.88c-0.58-0.082-1.173,0.036-1.723,0.238c0.264,0.045,0.528,0.09,0.792,0.135"/>
								<path style="fill:#F2594B;" d="M183.268,274.287c0.494,0.559,0.793,1.286,0.835,2.031c0.579-0.857,0.475-2.112-0.239-2.861
									c-0.343-0.36-0.812-0.586-1.301-0.662c-0.214-0.034-1.337-0.084-1.41,0.225c-0.052,0.22,0.576,0.297,0.74,0.352
									C182.425,273.55,182.895,273.866,183.268,274.287z"/>
							</g>
						</g>
					</g>
					<g>
						<path style="fill:#FFFFFF;" d="M179.03,283.757c-0.005,0.057-0.006,0.114-0.003,0.172c0.018,0.364,0.243,0.738,0.596,0.832
							c0.371,0.099,0.747-0.124,1.052-0.357c-0.195,0.585-0.092,1.261,0.268,1.762c0.152,0.212,0.392,0.407,0.648,0.359
							c0.191-0.036,0.331-0.195,0.447-0.35c0.354-0.471,0.638-0.994,0.842-1.547c0.007,0.339,0.125,0.688,0.38,0.911
							c0.255,0.223,0.659,0.287,0.939,0.097c0.253-0.172,0.354-0.505,0.329-0.81c-0.062-0.755-0.599-1.434-1.016-2.031
							c-0.073-0.105-0.154-0.216-0.268-0.253c-0.168-0.054-0.334,0.073-0.497,0.144c-0.57,0.249-1.317-0.175-1.233-0.839
							c0.016-0.128,0.063-0.251,0.073-0.379c0.01-0.128-0.027-0.273-0.138-0.34c-0.141-0.085-0.321-0.007-0.462,0.079
							c-0.68,0.414-1.253,1.001-1.65,1.691C179.185,283.162,179.056,283.454,179.03,283.757z"/>
						<g>
							<path style="fill:#F2594B;" d="M184.624,276.651c-1.351,1.354-2.488,2.94-3.357,4.618c-0.156,0.301-0.306,0.616-0.324,0.955
								c-0.018,0.338,0.128,0.707,0.432,0.856c0.352,0.173,0.77,0.008,1.119-0.171c1.611-0.823,3.057-1.93,4.604-2.867
								c0.864-0.523,1.768-0.993,2.725-1.322c0.961-0.33,1.958-0.297,2.91-0.571c0.911-0.262,1.824-0.751,2.261-1.592
								c0.482-0.928,0.246-2.144-0.475-2.903c-1.284-1.352-3.336-1.104-4.872-0.444c-0.82,0.353-1.603,0.788-2.353,1.271
								C186.334,275.099,185.44,275.833,184.624,276.651z"/>
							<g>
								<path style="fill:#B54338;" d="M184.772,279.22c0.486,0.304,0.869,0.77,1.073,1.305c0.254-0.717-0.07-1.593-0.73-1.971
									c-0.591-0.338-1.572-0.264-2.001,0.307C183.641,278.697,184.326,278.941,184.772,279.22z"/>
								<path style="fill:#B54338;" d="M186.481,275.938c1.292,0.07,2.488,1.025,2.841,2.27c0.369-0.455,0.358-1.15,0.046-1.645
									s-0.877-0.798-1.457-0.88c-0.58-0.082-1.173,0.036-1.723,0.238c0.264,0.045,0.528,0.09,0.792,0.135"/>
								<path style="fill:#B54338;" d="M192.221,275.016c0.494,0.559,0.793,1.286,0.835,2.031c0.579-0.857,0.475-2.112-0.239-2.861
									c-0.343-0.36-0.812-0.585-1.301-0.662c-0.214-0.034-1.337-0.084-1.41,0.225c-0.052,0.22,0.576,0.297,0.74,0.352
									C191.378,274.279,191.848,274.594,192.221,275.016z"/>
							</g>
						</g>
					</g>
				</g>
			</g>
		</g>
		<g>
			<g>
				<path d="M337.393,285.826l-5.024-36.451c-0.162-1.178,0.35-2.347,1.359-3.058c2.181-1.536,6.158-3.714,11.576-3.944
					c5.492-0.233,9.708,1.652,12.047,3.033c1.09,0.643,1.7,1.806,1.611,3.015c-0.935,12.57-1.87,25.14-2.805,37.71
					c-0.07,0.944-0.564,1.808-1.358,2.387c-1.604,1.171-4.598,2.814-8.575,2.557c-3.775-0.243-6.401-2.066-7.74-3.254
					C337.886,287.291,337.499,286.592,337.393,285.826z"/>
				<g>
					<path style="fill:#1A1A1A;" d="M352.553,248.712c1.032,0.254,2.042,0.616,2.971,1.104c0.616-0.472,0.995-0.979,0.988-1.499
						c-0.023-1.931-5.223-3.6-9.254-3.902c-5.865-0.439-12.684,1.758-12.703,3.902c-0.008,0.917,1.237,1.889,3.137,2.663
						C342.041,248.357,347.553,247.479,352.553,248.712z"/>
					<path style="fill:#6598B8;" d="M352.553,248.712c-5-1.232-10.513-0.355-14.862,2.268c2.679,1.091,6.668,1.786,10.371,1.347
						c2.643-0.313,5.87-1.291,7.461-2.511C354.595,249.327,353.585,248.966,352.553,248.712z"/>
				</g>
			</g>
			<g>
				<path style="fill:#8CC63F;" d="M442.108,210.555c0.018,9.038-1.637,18.252-5.912,25.913c-1.058,1.895-2.241,3.727-3.529,5.49
					c-7.935,10.857-18.965,17.919-31.087,24.085c-6.385,3.247-12.941,6.194-19.637,8.826c-1.649,0.648-20.03,6.931-20.056,6.817
					c-0.757-3.314-1.513-6.628-2.269-9.942c-0.456-1.997-2.483-6.087-1.341-7.983c0.446-0.742,1.253-1.215,2.026-1.657
					c5.184-2.964,10.237-5.966,15.329-9.103c8.539-5.376,17.15-10.808,24.278-17.775c7.127-6.968,12.75-15.689,14.01-25.296
					c0.818-6.237-0.418-12.467-0.859-18.682c-0.159-2.244-0.698-4.301-0.599-6.564c0.089-2.025,0.756-3.5,1.744-5.322
					c2.166-3.99,4.953-7.68,8.25-10.909c0.646-0.633,1.457-1.297,2.38-1.175c0.66,0.088,1.178,0.562,1.636,1.02
					c7.882,7.897,12.617,18.305,14.467,29.007C441.67,201.531,442.099,206.021,442.108,210.555z"/>
				<path style="fill:#69952F;" d="M424.264,234.855c1.622-1.837,4.089-2.987,6.622-3.085c0.736-0.029,1.552,0.06,2.053,0.569
					c0.501,0.509,0.37,1.54-0.351,1.686c-0.299,0.06-0.603-0.041-0.899-0.114c-2.302-0.568-4.779,0.65-6.212,2.442
					c-0.967,1.21-1.544,2.642-1.946,4.098c-0.207,0.751-0.167,1.933-0.851,1.01C421.298,239.591,423.007,236.278,424.264,234.855z"
					/>
			</g>
			<g>
				<path style="fill:#A1633A;" d="M363.064,280.324c1.812-1.409,3.02-3.192,3.967-5.192c0.941-1.988,0.51-4.064,0.446-6.162
					c-0.075-2.422-0.664-4.824-1.666-7.052c-1.379-3.066-3.524-5.802-6.103-8.077c-0.272-0.24-0.641-0.492-0.982-0.351
					c-0.38,0.156-0.393,0.649-0.366,1.039c0.168,2.396-0.453,6.278-2.531,7.948c-1.798,1.445-5.191,1.585-7.427,1.654
					c-3.879,0.118-7.637-0.789-11.271-1.981c-2.153-0.706-5.26-2.678-7.009-0.141c-1.132,1.642-0.023,4.209,2.004,4.638
					c-2.237-0.474-2.846,2.384-2.343,3.936c0.445,1.375,1.746,2.47,3.246,2.732c-1.259,0.509-1.721,2.109-1.21,3.308
					c0.511,1.199,1.748,2.005,3.046,2.421c-0.672-0.047-1.272,0.531-1.356,1.161c-0.083,0.63,0.256,1.259,0.742,1.699
					s1.104,0.724,1.716,0.989c1.783,0.771,3.671,1.561,5.63,1.599c2.395,0.046,4.76,0.016,7.151-0.143
					C353.798,284.012,359.156,283.362,363.064,280.324z"/>
				<g>
					<path style="fill:#753C17;" d="M336.831,268.757c4.057,1.231,8.284,2.191,12.539,1.973c0.275-0.014,0.558-0.035,0.803-0.153
						c0.245-0.118,0.446-0.357,0.425-0.616c-0.034-0.429-0.58-0.619-1.028-0.696c-3.101-0.534-6.278-0.461-9.422-0.673
						c-2.995-0.202-6.093-0.685-8.708-2.157C333.216,267.346,334.891,268.168,336.831,268.757z"/>
					<path style="fill:#753C17;" d="M344.657,276.42c1.392,0.252,2.896,0.48,4.173-0.1c0.256-0.116,0.523-0.303,0.541-0.571
						c0.022-0.326-0.33-0.555-0.651-0.679c-1.205-0.467-2.548-0.457-3.85-0.486c-1.991-0.043-3.98-0.192-5.954-0.445
						c-0.996-0.128-1.989-0.282-2.976-0.463c-0.703-0.129-1.834-0.59-2.519-0.469c0.204,0.517,1.054,0.778,1.557,0.943
						c1.046,0.342,2.109,0.641,3.178,0.911C340.302,275.603,342.478,276.025,344.657,276.42z"/>
					<path style="fill:#753C17;" d="M346.809,280.696c0.36-0.048,0.788-0.158,0.892-0.487c0.095-0.302-0.171-0.62-0.488-0.722
						c-0.317-0.102-0.663-0.047-0.993,0.003c-4.05,0.618-7.895,0.268-11.9-0.38c1.531,0.957,3.912,1.301,5.703,1.555
						C342.267,280.983,344.561,280.997,346.809,280.696z"/>
				</g>
			</g>
		</g>
	</g>
</g>
</svg>
